<?xml version="1.0" encoding="UTF-8"?>
<svg version="1.1" viewBox="0 0 2048 1024" width="200" height="100" xmlns="http://www.w3.org/2000/svg">
<path transform="translate(0)" d="m0 0h2048v1024h-2048z" fill="#FDFEFD"/>
<path transform="translate(976,274)" d="m0 0h31l25 3 25 6 21 7 31 13 3 2-2 4-17 16-13 13-7 8-9 9-6-1-27-9-17-3-12-1h-17l-19 2-21 5-20 7-19 9-15 10-11 9-10 9-9 10-11 15-11 19-7 16-4 11-5 25-2 15v28l3 17 6 21 8 20 8 15 8 11 11 13 9 9 17 13 18 11 23 11 21 7 20 4 11 1 22-1 22-3 25-7 16-7 16-8 12-8 10-8 14-13 9-11 10-14 9-16 7-17 7-23 4-19 2-21 4-6 10-9 7-6 30-30 7-5h4l3 13 3 22 1 13v25l-2 19-5 23-6 21-11 28-12 23-6 10 1 5 7 6v2l4 2 70 70 8 7v3l-12 12-8 7-16 16h-2l-2 4-8 7-6 9-4-1-10-9-14-14-8-7-32-32-8-7-18-18-5-1-20 12-16 8-19 8-21 7-29 6-11 2-11 1h-22l-22-3-32-6-15-5-15-6-25-12-18-11-16-12-12-11-7-8-10-11-14-19-14-21-10-18-9-21-7-22-5-26-1-9v-39l3-20 6-25 7-21 9-20 9-17 12-18 11-14 11-12 15-15 17-13 15-10 18-10 20-9 28-9 17-4z" fill="#18A277"/>
<path transform="translate(976,274)" d="m0 0h31l25 3 25 6 21 7 31 13 3 2-2 4-17 16-13 13-7 8-9 9-6-1-27-9-17-3-12-1h-17l-19 2-21 5-20 7-19 9-15 10-11 9-10 9-9 10-11 15-11 19-7 16-4 11-5 25-2 15v28l3 17 6 21 8 20 8 15 8 11 11 13 13 13h-4l-9 11-10 9-7 8-12 12-5 4-2 3-7-8-10-11-14-19-14-21-10-18-9-21-7-22-5-26-1-9v-39l3-20 6-25 7-21 9-20 9-17 12-18 11-14 11-12 15-15 17-13 15-10 18-10 20-9 28-9 17-4z" fill="#76E1B7"/>
<path transform="translate(1256,276)" d="m0 0 4 1 5 9-1 5-10 13-11 12-7 9-11 13-9 10-9 11-9 10-1 2h-2l-2 4-12 14-9 10-9 11-9 10-7 8-9 10-7 9-9 11-12 14-11 13-7 8-9 10-9 11h-2l-2 5-10 11-1 2h-2l-2 4-3 4h-2l-2 4-12 14-9 11-9 10-9 11-7 9h-2l-1 3h-2l-10-13-13-16-10-14-16-20-16-21-10-13-8-10-11-14-9-12-9-11-3-5 2-5 5-10 5-1 11 7 14 11 13 10 20 15 18 13 14 11 4 4 4-2 7-7 11-9 7-7 8-7 11-10 11-9 12-11 15-14 11-9 10-9 11-9 16-15 11-9 15-14 10-9 13-12 11-9 13-12 8-7 10-9 11-9 10-9 16-12z" fill="#0A1814"/>
<path transform="translate(1220,457)" d="m0 0 2 1-44 44-6 5-2 8-1 14h-1v-15l2-8 5-6 11-9 5-6 8-7z" fill="#44C095"/>
<path transform="translate(1183,493)" d="m0 0 2 1-7 8-6 5-2 8-1 14h-1v-15l2-8 5-6z" fill="#76E1B7"/>
</svg>
