<?xml version="1.0" encoding="UTF-8"?>
<svg version="1.1" viewBox="0 0 2048 1024" width="200" height="100" xmlns="http://www.w3.org/2000/svg">
<path transform="translate(0)" d="m0 0h2048v1024h-2048z" fill="#FEFEFE"/>
<path transform="translate(1136,271)" d="m0 0h114l12 2 10 6 7 8 4 8 1 9-6 21-20 57-19 53-16 45-19 53-17 48-19 53-19 54-14 37-9 17-9 7-8 4-14 2h-206l-10-2-11-6-6-8-7-14-13-36-13-37-20-58-8-23-22-64-8-25-3-13v-13l5-10 6-5 10-4 14-3 14-1 34-1h35l19 1 17 3 10 4 12 9 10 11 9 14 10 19 10 27 6 15 1 3h2l3-9 10-25 26-66 30-79 17-43 9-16 9-10 10-9 12-6 11-3z" fill="#186FFD"/>
<path transform="translate(851,432)" d="m0 0h35l19 1 17 3 10 4 12 9 10 11 9 14 10 19 10 27 6 15 1 3h2v9l-12 28-20 54-8 21-11 28-14 36-15 38-1 2h83v1h-105l-10-2-11-6-6-8-7-14-13-36-13-37-20-58-8-23-22-64-8-25-3-13v-13l5-10 6-5 10-4 14-3 14-1z" fill="#5CCBFF"/>
</svg>
