<?xml version="1.0" encoding="UTF-8"?>
<svg version="1.1" viewBox="0 0 2048 1024" width="200" height="100" xmlns="http://www.w3.org/2000/svg">
<path transform="translate(0)" d="m0 0h2048v1024h-2048z" fill="#FDFFFF"/>
<path transform="translate(1030,175)" d="m0 0 4 1 12 23 13 24 12 21 15 26 12 21 14 25 14 24 13 23 30 52 16 27 24 40 10 17 11 19 12 21 15 26 17 29 10 14 1 3-10 6-35 18-3-3-11-23-10-17-17-29-16-29-16-26-12-21-14-24-12-20-8-14-14-24-13-23-10-17-14-24-13-23-15-27-8-17h-4l-16 26-21 35-10 17-17 29-12 20-13 23-15 26-13 24-9 16-12 21-11 19-9 15-11 19-20 35-11 19-13 23-10 17-15 26-13 23-9 15-13 20-7 12v2l4 1 119-1h387l7-13 8-10 10-8 14-6 9-2h24l13 3 11 6 10 9 7 8 8 14 5 13 2 9-1 16-7 18-7 11-9 10-12 9-12 5-9 2-9 1h-13l-12-2-16-8-11-10-7-10-6-12-593-1 2-5 13-23 14-25 17-29 15-27 12-20 13-21 12-21 16-27 15-26 12-21 13-23 28-49 15-26 12-21 15-26 14-24 24-42 15-26 14-24 15-27 10-17 14-24 15-26 11-18z" fill="#1F7AC4"/>
<path transform="translate(935,564)" d="m0 0 13 2 15 5 16 7 9-4 14-8h6l7 4 6 12 1 11 1 31v53l-3 22-5 18-2 2-4 1h-12l-7-4-3-7-5-5-19 11-10 4-15 3h-13l-10-2-11-4-13-9-10-9-9-12-7-16-3-13-1-9v-16l3-16 4-11 11-15 9-9 13-8 11-5 11-3z" fill="#1F7AC4"/>
<path transform="translate(1171,565)" d="m0 0h8l1 5-6 15-11 15-9 12-12 15-7 10 1 7 8 11 12 16 16 23 11 17 5 7-1 2h-16l-24-1-5-2-11-21-6-10-10-19h-2l-12 17-10 15-5 8-3 6-6 3-13 3-11 1h-17l2-6 10-15 29-44 10-15v-6l-6-9-10-11-11-14-10-12-6-13v-6l3-1h22l15 2 6 7 14 27 7 9h2l13-25 9-13 10-8 2-1h9l4 2 6-1z" fill="#1F7AC4"/>
<path transform="translate(936,598)" d="m0 0h7l15 4 11 7 7 8 5 12 1 4v19l-4 11-10 13-9 7-14 7-4 1h-7l-11-4-9-8-13-13-4-9-1-17 3-12 6-10 12-11 8-6 4-2z" fill="#FDFFFF"/>
<path transform="translate(1308,753)" d="m0 0h17l14 3 5 4 4 8 1 4v16l-4 13-8 9-8 5-13 4-12-3-8-9-6-11-3-3-1-3v-7l3-10 7-11 4-5z" fill="#FDFFFF"/>
</svg>
