<?xml version="1.0" encoding="UTF-8"?>
<svg version="1.1" viewBox="0 0 2048 1024" width="200" height="100" xmlns="http://www.w3.org/2000/svg">
<path transform="translate(0)" d="m0 0h2048v1024h-2048z" fill="#FD9C34"/>
<path transform="translate(871,199)" d="m0 0 6 2 7 5 5 7 3 5 13 10 50 50 8 7 45 45 8 7 21 21 7 8 7 7 3 2v7l-5 21-6 18-4 8-1 9 10 3 3-9 6-19 7-29 5-28 4-39v-26l-2-26-3-13-1-6 8 6 11 11 8 7 76 76 8 7 17 17 8 7 16 17 9 10 5 5 7 8 7 7 8 6 9 8 7 8 11 11 7 8 12 12 7 8 12 11 20 20 8 7 65 65 5 3 5 6 8 6v77l-1 105-2 122 1 10-16 1-92 2-103 2h-90l-28-2-10-2-2-1v-2l-4-2-11-8-9-9-8-7-23-23-7-8-24-24-9-11-7-8-8-7-5-5-10-8-13-11-9-9-11-14-8-13-6-14-5-19-2-18v-131l-2-8-4-2-10-8-10-10-9-11 1-2 11 9 9 7 8 7 4 7 1-2v-18l-4-3-25-11-13-5-5-2-8-7-12-9-14-12-10-10-10-15-4-10-1-7 5-5 7-4-9-21-8-28-5-25-3-22-2-27v-29l3-22 5-13 7-10 10-8 16-8 10-4 6-1v-10l10-4z" fill="#B57225"/>
<path transform="translate(871,199)" d="m0 0 6 2 7 5 5 7 3 5 13 10 50 50 8 7 45 45 8 7 21 21 7 8 7 7 3 2v7l-5 21-6 18-4 8-1 9 5 2 6 3 1 6-6 14-9 12-9 10-11 9-15 11-15 9-16 8-26 10-4 2-1 55v100l2 20 4 16 8 16 11 14 7 7 12 9 17 8 21 5 19 1 16-3 20-8 12-8 13-12 10-14 8-16 3-10 3-22 1-36 4-37 5-26 9-29 4-9 5-5-1-5-6-11-6-10-5-13-1-5v-24l5-17 7-11 11-12 10-7 10-5 14-4 10-1h10l16 4 14 8 13 12 10 12 7 15 2 8v21l-4 14-5 10-10 13-9 9-13 8-11 4-7 1h-22l-14-2-3 10-8 21-4 17-4 30-3 41-2 27-3 18-6 16-8 15-9 12-9 10-8 8-17 12-17 9-11 4-15 3-11 1h-16l-25-3-17-5-11-7-14-12-8-7-7-7-11-14-8-13-6-14-5-19-2-18v-131l-2-8-4-2-10-8-10-10-9-11 1-2 11 9 9 7 8 7 4 7 1-2v-18l-4-3-25-11-13-5-5-2-8-7-12-9-14-12-10-10-10-15-4-10-1-7 5-5 7-4-9-21-8-28-5-25-3-22-2-27v-29l3-22 5-13 7-10 10-8 16-8 10-4 6-1v-10l10-4z" fill="#B67325"/>
<path transform="translate(1200,425)" d="m0 0h10l16 4 14 8 13 12 10 12 7 15 2 8v21l-4 14-5 10-10 13-9 9-13 8-11 4-7 1h-22l-14-2-3 10-8 21-4 17-4 30-3 41-2 27-3 18-6 16-8 15-9 12-9 10-8 8-17 12-17 9-11 4-15 3-11 1h-16l-25-3-17-5-11-7-14-12-8-7-7-7-11-14-8-13-6-14-5-19-2-18v-131l-2-8-4-2-10-8-10-10-9-11 1-2 11 9 9 7 8 7 4 7 1-2v-18l-4-3-25-11-13-5-5-2-8-7-12-9-14-12-10-10-10-15-4-10-1-7 5-5 9-4 6 1 7 7 8 10 15 15 17 12 17 10 23 10 11 3h9l24-8 19-9 16-10 10-8 6-6h2l2-4 10-11 7-9 8-7 3 4 1 2 12 6 1 6-6 14-9 12-9 10-11 9-15 11-15 9-16 8-26 10-4 2-1 55v100l2 20 4 16 8 16 11 14 7 7 12 9 17 8 21 5 19 1 16-3 20-8 12-8 13-12 10-14 8-16 3-10 3-22 1-36 4-37 5-26 9-29 4-9 5-5-1-5-6-11-6-10-5-13-1-5v-24l5-17 7-11 11-12 10-7 10-5 14-4z" fill="#161112"/>
<path transform="translate(1190,448)" d="m0 0h24l12 4 10 7 8 9 6 12 1 5v23l-6 11-3 5h-2l-2 4-5 5-9 6-11 5h-19l-7-2-10-5-10-9-8-11-6-14v-15l5-14 8-11 9-8 12-6z" fill="#FBF8F2"/>
<path transform="translate(976,200)" d="m0 0 13 2 13 4 5 5v7l21 6 11 6 8 6 6 10 7 19 3 15v39l-8-6-38-38-8-7-16-15-7-7-10-13-8-10-3-3-1-5 3-8 4-5z" fill="#B67325"/>
<path transform="translate(1198,465)" d="m0 0h13l10 5 7 7 4 9 1 4-1 16-4 8-9 9-7 4-5 1h-8l-11-4-10-9-4-5-2-6-1-7v-8l4-10 7-8 12-5z" fill="#564231"/>
<path transform="translate(1006,208)" d="m0 0 21 5 12 5 14 9 7 6 9 19 3 13 2 26v26l-4 39-5 28-8 33-7 21-2 3h-5l-5-3-1-4 3-10 4-8 7-25 9-44 2-17v-50l-3-15-7-19-5-8v-2l-4-2-11-7-10-4-16-4z" fill="#FBF9F4"/>
<path transform="translate(836,208)" d="m0 0h7l2 2v7l-7 2-19 8-11 7-7 6-6 10-4 11-3 22v29l3 36 5 30 8 30 6 16 5 11-9 6-4 1-5-15-7-25-7-28-4-28-2-24v-45l2-15 4-13 8-13 8-9 10-7 14-7z" fill="#FBF9F4"/>
<path transform="translate(976,200)" d="m0 0 13 2 13 4 5 5v7l-2 4-6 2-8 1-4 2h-6l3 4-1 3-5 1-9-10-4-5-1-5 3-8 4-5z" fill="#181312"/>
<path transform="translate(871,199)" d="m0 0 6 2 7 5 5 7 3 5 3 4-7-2-5 4-3 1h-17l-14-3-5-3v-12l10-4z" fill="#171212"/>
<path transform="translate(861,514)" d="m0 0 9 2 29 13 8 4 2 2v18l-2 3-7-10-9-7-11-9-5-4 1 4-15-15z" fill="#F89933"/>
<path transform="translate(1067,246)" d="m0 0 8 6 11 11 8 7 74 74h-3l-29-29-2-1v-2h-2l-4-5-8-7-32-32v-2l-4-2-5-4-4-4-2-1-2 2v-2h-2l-2-5z" fill="#513F32"/>
<path transform="translate(1311,489)" d="m0 0 4 2 25 25 8 7 65 65h-3l-48-48-8-7-34-34-2-1v-2h-2z" fill="#48382D"/>
<path transform="translate(874,525)" d="m0 0 9 6 9 8 8 6 4 5 3 5 2-2-1 7-1-2-4-2-10-8-10-10-9-11z" fill="#201917"/>
<path transform="translate(1016,447)" d="m0 0v3l-7 8-14 14-18 12-9 5h-5l4-3 13-8 15-11 8-7z" fill="#F19532"/>
<path transform="translate(861,514)" d="m0 0 9 2 16 7-3 1-2-1-1 2h-2l1 3 5 2 10 9h-3l-11-9-5-4 1 4-15-15z" fill="#B67325"/>
<path transform="translate(1426,841)" d="m0 0h1l1 75h-5l1-2 1-21z" fill="#4F3D31"/>
<path transform="translate(1067,246)" d="m0 0 8 6 11 11 8 7 7 7-2 2-9-10-2-1v-2l-4-2-5-4-4-4-2-1-2 2v-2h-2l-2-5z" fill="#56402F"/>
<path transform="translate(951,528)" d="m0 0h5l-5 5h-2l-2 4-5 6h-2v-9l3-1v-2z" fill="#F69833"/>
<path transform="translate(1219,519)" d="m0 0 2 2-9 6-5 1h-8l-7-2v-1l5-1h10l9-3z" fill="#D4852B"/>
<path transform="translate(1100,278)" d="m0 0 4 2 22 22v2l-4-2-22-22z" fill="#49382D"/>
<path transform="translate(994,813)" d="m0 0h10l19 2 1 2h-26z" fill="#E78F2F"/>
<path transform="translate(889,538)" d="m0 0 5 2 9 8 1 4-11-6z" fill="#5C4530"/>
<path transform="translate(894,547)" d="m0 0 7 2 5 4 1 2 2-2-1 7-1-2-4-2-9-7z" fill="#2D231E"/>
<path transform="translate(1020,223)" d="m0 0 8 1 11 6 8 6 2 5-8-6-5-4-13-6z" fill="#825930"/>
<path transform="translate(908,535)" d="m0 0h1v18l-2 3-7-10-3-4 5 2 5 6z" fill="#B67325"/>
<path transform="translate(1283,460)" d="m0 0 7 6 11 11 7 8h-3l-7-7-7-8-8-8z" fill="#513F32"/>
<path transform="translate(1088,763)" d="m0 0v3l-10 7-5 3-4-1h2v-2l10-6 6-3z" fill="#EA9130"/>
<path transform="translate(1143,558)" d="m0 0h1l-1 9-4 12h-2l2-10 3-9z" fill="#E58E2F"/>
<path transform="translate(1244,435)" d="m0 0 5 2 10 10v2l-4-2-10-9z" fill="#513F32"/>
<path transform="translate(982,476)" d="m0 0m-1 1m-1 1m-1 1m-2 1h2v3l-11 6h-5l4-3z" fill="#ED9331"/>
<path transform="translate(1113,291)" d="m0 0 4 2 9 9v2l-4-2-9-9z" fill="#4A392E"/>
<path transform="translate(1197,524)" d="m0 0h8l2 2-1 1h-11l-3-2z" fill="#BE7726"/>
<path transform="translate(874,525)" d="m0 0 9 6 2 3-4 1-7-8z" fill="#4C3B2F"/>
<path transform="translate(1243,439)" d="m0 0 6 2 6 9-4-2-8-7z" fill="#E18C2E"/>
<path transform="translate(980,227)" d="m0 0 4 4-1 3-3 1-3-7z" fill="#513F32"/>
<path transform="translate(838,218)" d="m0 0h6l2 2-10 2-4-1z" fill="#775331"/>
<path transform="translate(887,216)" d="m0 0 4 1 4 5-7-2-2 1z" fill="#352A23"/>
</svg>
