<?xml version="1.0" encoding="UTF-8"?>
<svg version="1.1" viewBox="0 0 2048 1024" width="200" height="100" xmlns="http://www.w3.org/2000/svg">
<path transform="translate(0)" d="m0 0h2048v1024h-2048z" fill="#fff"/>
<path transform="translate(980,204)" d="m0 0 10 1 8 4 8 7 29 8 23 8 13 7 10 9 7 9 6 14 4 16 2 14v33l-3 23-6 27-10 30-10 23-10 20-12 19-6 10-5 13-6 9-5 6h-2l-2 4-10 9-14 11-13 8-19 9-23 7-2 3v106l3 22 7 21 10 19 11 14 15 15 14 10 16 8 22 7 12 2 19 1 24-3 16-5 16-7 12-7 10-8 10-9 9-11 10-16 7-14 5-17 2-16 1-24v-77l-5-2-19-8-11-7-10-9-9-10-6-10-5-10-3-10-1-7v-20l2-13 5-15 6-11 10-13 8-7 10-7 15-7 14-3 8-1h13l17 3 13 5 12 8 12 10 10 13 8 14 4 12 1 5v27l-3 14-4 10-10 16-11 12-10 7-14 7-17 6-1 86-2 23-4 21-5 15-7 16-10 16-8 10-9 10-11 11-14 10-18 10-21 8-21 5-13 2h-20l-20-3-15-4-20-8-14-7-12-8-11-9-11-10-9-11-9-12-6-10-10-22-5-15-3-13-1-10-1-113-7-3-16-5-18-8-20-13-14-12-12-12-7-10-7-16-11-19-8-14-12-23-11-27-8-27-5-24-2-15v-33l3-19 5-15 7-13 9-10 11-8 19-9 33-10 10-3 6-4 4-5 3-1h11l9 6 5 6 2 8-1 9-4 6-8 7-2 1h-10l-8-1h-13l-26 6-12 5-10 6-8 9-4 11-2 12v39l5 30 7 24 7 19 10 22 14 24 8 10 10 9 11 9 12 12 14 10 16 9 16 5 5 1h20l12-3 17-8 12-8 16-13 8-8 8-7 9-6 9-12 9-16 13-27 10-28 6-23 3-21 1-13v-23l-2-18-5-12-7-8-10-6-12-5-24-7-13-2-10 4-12-1-7-6-5-8-1-4v-7l4-8 6-7z" fill="#060606"/>
<path transform="translate(1203,449)" d="m0 0 13 1 12 4 10 8 7 8 3 7 1 6v16l-3 12-6 9-9 8-10 4-5 1h-17l-13-5-10-9-6-8-4-11-1-10 2-11 7-14 5-6 10-6 8-3z" fill="#060606"/>
<path transform="translate(1195,436)" d="m0 0h27l9 2 12 7 6 5 9 13 4 10 2 10v17l-2 10-7 14-11 12-12 7-15 4h-21l-13-4-11-7-8-8-7-10-5-12-1-6v-18l4-13 6-10 11-12 11-7 7-3zm8 13-12 3-9 5-5 4-7 11-4 10-1 10 2 12 5 10 11 12 12 6 4 1h17l11-3 9-6 8-9 4-10 1-6v-16l-2-9-6-9-10-9-8-4-13-3z" fill="#fff"/>
</svg>
