<?xml version="1.0" encoding="UTF-8"?>
<svg version="1.1" viewBox="0 0 2048 1024" width="200" height="100" xmlns="http://www.w3.org/2000/svg">
<path transform="translate(0)" d="m0 0h2048v1024h-2048z" fill="#fff"/>
<path transform="translate(663,534)" d="m0 0h722v157l-1 20-4 2h-698l-23-1 1-177z" fill="#040404"/>
<path transform="translate(1131,311)" d="m0 0 5 1 1 30v91l1 58 3 4 9 3 2 2v4l-2 1-28 1-6-1-1-12-10 5-4 3-12 5-2 2h-11l-13-4-9-5-7-6-9-14-4-9-3-16v-21l4-19 6-12 7-9 7-7 12-6 16-2 9 1 14 8 9 4-1-55-14-4-4-4-1-4 1-2 28-7z" fill="#040404"/>
<path transform="translate(718,378)" d="m0 0h5l2 2 3 14h4l11-7 9-6 11-3h11l8 3 6 7 5 8h10l13-9 16-8 4-1 15 1 12 6 6 7 3 8 1 6 3 84 5 5 4 2 5 6v2l-4 1h-15l-36-1 1-4 7-5 5-2 2-3 1-12v-53l-1-23-3-7-5-3-4-1h-10l-10 3-10 6-3 1-4 10-1 75 3 7 12 6 3 3v2h-56l5-10 8-1 2-3v-83l-2-9-6-5-7-2-10 1-10 4-13 6-2 6-1 42v39l1 4 10 3 6 7v1h-53l-3-3 1-5 7-3 7-2v-86l-1-5-13-5-4-3v-3l15-4 13-5z" fill="#040404"/>
<path transform="translate(1276,379)" d="m0 0h25l10 3 8 6 4 6 3 10 1 7 1 78 19 2-1 6-8 7-12 6-11-1-4-4-3-11-6 1-8 5-20 8-6 1h-8l-10-3-6-5-5-7-3-10v-10l2-9 5-8 8-7 14-8 28-10 12-5v-23l-2-9-5-5-2-1h-16l-8 4-4 9-5 12-2 2-9 1-10-4-2-3v-6l7-12 5-4 12-6z" fill="#040404"/>
<path transform="translate(957,377)" d="m0 0 14 1 11 4 9 7 9 9 8 14 4 11 1 11-19 1-65 2v11l2 14 5 13 7 11 5 5 10 5 6 1 16-4 12-6 9-7 11-9 1 3-6 12-10 9-11 7-16 6-10 1-17-4-11-6-10-9-8-9-6-10-5-13-1-6v-12l3-15 5-13 6-11 11-12 9-6 9-4z" fill="#040404"/>
<path transform="translate(914,559)" d="m0 0h7l7 3 5 5 8 9 9 11 12 14 9 10 9 11 13 16 12 16 4 4-1-26v-19l1-53 3-1h7l4 3 1 84v39l-5 2-11-2-11-13-10-11-9-11-13-15-11-13-11-14-15-20-1-2v37l-1 62-4 3h-7l-3-2-1-17v-68l1-32 1-9z" fill="#fff"/>
<path transform="translate(1081,388)" d="m0 0h10l10 4 12 7 3 3v59l-1 19-3 6-11 7-11 3-9 1-9-6-6-7-6-12-4-16-1-10v-14l3-15 4-10 6-9 8-7z" fill="#fff"/>
<path transform="translate(735,559)" d="m0 0h32l16 4 5 5 1 11-1 3-6-2-5-3-10-4-5-1h-24l-10 3-10 6-6 5-7 11-4 11-1 5v22l4 14 5 9 8 9 8 5 9 3 6 1h23l8-3 3-6 1-34 3-5 9 1 5 5 1 6v25l-2 13-4 5-9 4-8 2-20 1-16-1-16-4-11-6-10-9-7-9-8-17-2-8-1-17 2-12 5-13 8-12 9-9 14-9 12-4z" fill="#fff"/>
<path transform="translate(821,560)" d="m0 0h63l2 4-1 7-2 1h-45l1 40 9 1 36 1v9l-1 1-44 1v48h52l2 4-1 9-3 1h-63l-5-3-1-65v-58z" fill="#fff"/>
<path transform="translate(1078,559)" d="m0 0h38l3 1 1 9-3 3h-41l-2 1v39l38 1 6 2 1 1v5l-2 2-44 1 1 49h41l9-1 3 3 1 9-2 2-32 1h-35l-3-1-1-2v-109l1-14 1-1z" fill="#fff"/>
<path transform="translate(1174,558)" d="m0 0h18l15 4 4 4 2 4-1 6-4 1-18-6-2-1h-12l-8 4-3 7v7l5 10 10 9 14 11 10 9 7 8 5 9 1 4v9l-2 9-5 9-7 7-10 5-11 2h-13l-12-2-8-4-3-4-2-6 1-7 6 1 10 6 12 3h8l9-3 5-4 3-6v-12l-6-10-10-9-12-9-10-9-7-8-5-9-1-4v-8l4-11 6-8 7-5z" fill="#fff"/>
<path transform="translate(1319,557)" d="m0 0h12l12 3 8 4 5 6-1 6-2 2-8-1-11-5-3-1h-13l-7 4-3 7v9l5 10 11 9 13 10 10 9 6 7 5 10 1 4v8l-2 9-4 8-9 8-12 5-5 1h-15l-16-4-9-6-3-6v-5l4-1 10 3 9 4 10 2 12-1 9-6 3-7v-9l-4-10-4-5-19-14-10-9-8-9-5-10-1-11 4-11 10-11 10-5z" fill="#fff"/>
<path transform="translate(1201,378)" d="m0 0h6l1 1 1 78 1 30 3 6 6 3 5 5v3l-51-1-1-4 4-5 8-3 2-1v-86l-3-3-13-5-1-6 8-3 16-5z" fill="#040404"/>
<path transform="translate(1244,559)" d="m0 0h11l3 2 1 46v18l-1 61-1 1h-15l-2-3v-119l2-5z" fill="#fff"/>
<path transform="translate(1299,438)" d="m0 0h7v41l-7 8-11 4-7 2h-12l-5-5-4-16 1-7 6-8 9-8 11-6z" fill="#fff"/>
<path transform="translate(955,387)" d="m0 0h9l11 4 5 4 7 11 3 8v11l-3 1h-58l1-10 3-10 7-9 9-8z" fill="#fff"/>
<path transform="translate(1193,313)" d="m0 0 8 1 6 4 3 6v10l-3 7-5 4-3 1h-10l-6-4-4-6-1-6 2-9 8-7z" fill="#040404"/>
</svg>
