<?xml version="1.0" encoding="UTF-8"?>
<svg version="1.1" viewBox="0 0 2048 1024" width="200" height="100" xmlns="http://www.w3.org/2000/svg">
<path transform="translate(0)" d="m0 0h2048v1024h-2048z" fill="#FEFEFE"/>
<path transform="translate(989,208)" d="m0 0h177l48 1 16 3 20 7 19 10 9 7 10 9 11 13 11 18 8 17 4 14 1 12v373l-2 18-4 15-9 19-10 14-12 13-14 11-13 8-15 7-17 5-15 2-90 1h-247l-36-1-14-2-17-5-17-8-12-8-9-7-8-7-7-8-9-12-9-16-6-18-3-18v-333l1-47 2-14 5-15 8-16 9-13 11-13 9-8 15-10 15-8 15-5 17-3 11-1z" fill="#2E7DFD"/>
<path transform="translate(842,328)" d="m0 0h370l10 3 8 7 4 8 2 14 1 14v33l-2 17-4 8-9 7-25 12-21 9-27 11-36 15-56 24-40 18-38 16-112 48-20 6-9-2-13-7-7-8-2-10v-225l6-9 9-6 5-2z" fill="#FEFEFE"/>
<path transform="translate(1143,537)" d="m0 0h26l18 4 16 8 11 8 9 10 8 14 4 13 1 7v17l-4 18-6 12-7 10-11 12-11 8-11 5-18 4h-20l-15-4-12-5-11-8-11-11-8-13-5-15-2-13v-16l3-14 4-10 8-12 12-13 11-8 12-6z" fill="#FEFEFE"/>
<path transform="translate(1229,433)" d="m0 0 3 1-1 3-8 7-10 6-9 4-4 2h-3l-1 2-12 5-4 4-17 8-12 5-5 3-11 3-27 8-4 2-2 2-8 5-10 4-5 4-14 5-11 8h-2v2l-12 5-5 4-15 7-16 6-20 9-8 4-24 8-11 5-10 5-13 5-12 5h-6l3-2 5-2-10 3-11 4-6 2-22 5h-12v-2l20-6 30-13 49-21 23-10 29-12 30-13 40-18 31-13 47-20 28-11 20-9 18-8 13-7z" fill="#2271FD"/>
<path transform="translate(989,208)" d="m0 0h177l48 1 16 3 12 4v2l2 1-2 2-7-2v2h-8l-10-1h-8l-10-2-42-2 1-2 7-1-9-1-16 1-11 2-73 1h-176l-18-1h-7l-2-2h-6l3 3-14 1-3-1-13 3-9 4 1 3-11 6-11 8-6 2-6 4-5 5-8 7-7 4-4 4-5 7-1 3h-2l-2 5-5 9-2 7-3 1v-7l8-18 8-12 8-10 9-10 13-10 17-10 14-6 17-4 18-2z" fill="#2170FD"/>
<path transform="translate(905,318)" d="m0 0h82l97 1 14 2h15l12-2 39-1h31l16 3 10 4v2l4 1 4 2 2 7-7-4-7-3-5-1h-370l-8 2-8 4-5 5-4 6-4 1v2l-3-1-1-11 10-8 11-3 15-1 24-4 21-2z" fill="#2271FD"/>
<path transform="translate(989,208)" d="m0 0h177l48 1 7 1v1h-374v2l3 3-14 1-3-1-13 3-9 4 1 3-11 6-11 8-6 2-6 4-5 5-8 7-7 4-4 4-5 7-1 3h-2l-2 5-5 9-2 7-3 1v-7l8-18 8-12 8-10 9-10 13-10 17-10 14-6 17-4 18-2z" fill="#2271FD"/>
<path transform="translate(1302,741)" d="m0 0h1l1 9-8 10-10 11-14 11-13 8-15 7-17 5-19 1h-85v-1l49-1 14-3 22-3 10-3 22-12 6-2 9-6 14-8 19-10 7-5h2l2-4z" fill="#2170FD"/>
<path transform="translate(733,694)" d="m0 0 2 1 1 10 1-2 2 3 8 20 5 9 8 9 1 5 2 1 1 3 2 1v2l4 2 11 10 15 9 16 11 11 6 5 3v2l3 1v1h-10l-15-5-16-8-11-7-9-7-8-7-7-8-9-12-9-16-2-5-3-14-2-17z" fill="#2271FD"/>
<path transform="translate(730,378)" d="m0 0 2 3v9l2 12 1 19v48l-1 9 1 4-1 15-1 10 1 12v26l-1 11-1 12h-1l-1-5z" fill="#2170FD"/>
<path transform="translate(989,208)" d="m0 0h177l48 1 7 1v1h-372l-3 1-11-1v-1l11-1z" fill="#2F7EFD"/>
<path transform="translate(1256,224)" d="m0 0 6 1 14 9 13 12 10 12 7 11 3 10-7-6-4-5v-2l-4-2-4-4-1-3-5-5-4-5-7-8-6-7-4-3-4-2z" fill="#2372FD"/>
<path transform="translate(1209,548)" d="m0 0 10 5 6 5 4 6 3 9 3 7 2 11-2 2-2-10h-2l-7-13-8-10-11-9v-2z" fill="#2372FD"/>
<path transform="translate(1080,602)" d="m0 0h3l1 25h2l6 22-1 2-7-9-3-9-2-12v-16z" fill="#2271FD"/>
<path transform="translate(1073,628)" d="m0 0h1l1 5 2-3 3 15 4 9 2 4-1 4-3 1-5-5-4-10-1-18z" fill="#2170FD"/>
<path transform="translate(1238,366)" d="m0 0 2 1 1 4 1 24-2 14-2 1z" fill="#2170FD"/>
<path transform="translate(1143,687)" d="m0 0h29l-4 4-10 1-12-2v-2z" fill="#2372FD"/>
<path transform="translate(1244,226)" d="m0 0 10 4 3 4-1 2-5-2-8-5z" fill="#2170FD"/>
<path transform="translate(1246,219)" d="m0 0 6 1 2 1v6l-10-5 2-1z" fill="#2271FD"/>
<path transform="translate(1237,601)" d="m0 0 2 3 1 8-1 5h-2z" fill="#2170FD"/>
</svg>
