<?xml version="1.0" encoding="UTF-8"?>
<svg version="1.1" viewBox="0 0 2048 1024" width="200" height="100" xmlns="http://www.w3.org/2000/svg">
<path transform="translate(0)" d="m0 0h2048v1024h-2048z" fill="#FEFEFE"/>
<path transform="translate(1e3 170)" d="m0 0h40l22 2 34 6 21 6 32 12 29 14 22 12 15 10 19 14 13 11 8 7 19 19 11 14 12 16 10 15 12 21 12 25 10 26 8 24 7 34 3 17 2 21v23l-3 31-6 33-6 21-13 38-12 26-10 18-14 21-9 12-9 11-14 15-15 15-11 9-15 12-21 14-15 9-24 12-25 10-30 10-22 5-35 6-21 2h-19l-31-3-38-7-16-4-22-8-12-4-20-9-24-12-22-14-12-9-11-9-14-12-22-22-9-11-12-16-12-18-12-21-14-29-9-25-8-26-6-28-4-26-1-10v-38l3-23 7-35 5-17 12-34 11-24 11-21 11-17 9-12 9-11 12-14 20-20 11-9 9-8 19-14 15-10 25-14 22-10 28-10 26-7 34-6z" fill="#E5730A"/>
<path transform="translate(1016,273)" d="m0 0h14l23 4 27 7 15 4 31 13 20 11 16 11 16 13 18 18 13 17 9 14 11 20 12 26 4 14 4 20 6 21 2 15v18l-5 24-5 22-4 17-6 15-8 18-8 14-9 14-9 12-9 10-1 2h-2l-2 4-17 16-15 11-17 11-16 9-19 9-18 6-45 11-17 2h-12l-22-3-35-9-21-7-24-11-24-15-13-10-11-9-16-16-14-19-9-14-12-22-11-26-7-25-6-21-4-17v-22l4-20 7-25 7-24 10-23 9-17 12-19 13-16 12-13 9-9 14-11 15-11 15-9 21-10 18-6 36-9 22-4z" fill="#FEFEFE"/>
<path transform="translate(1035,366)" d="m0 0h27l18 3 14 4 15 8 14 10 14 13 10 13 8 14 5 12 4 14 2 13v25l-3 16-6 16-10 18-8 10-9 10-12 10-15 9-13 5-22 5-14 2h-10l-25-4-21-7-9-1-6 5h-2l-2 4-36 36-7 8-11 10-13 9-4-1-3-1v2l-4-1-13-9-9-9-3-9-3-1 2-6 6-11 12-14 17-17 7-8 19-19 10-8v-9l-9-31-3-15v-21l4-18 6-16 9-16 9-12 9-10 13-11 17-10 13-5 14-3z" fill="#E5730A"/>
<path transform="translate(1048,421)" d="m0 0 13 1 13 4 11 7 11 11 9 14 3 8 1 7v13l-4 16-7 11-9 10-9 8-13 6-10 2h-10l-13-2-14-6-9-7-7-6-9-14-4-16v-10l3-14 7-14 8-10 9-8 12-7 11-3z" fill="#FEFEFE"/>
<path transform="translate(1035,366)" d="m0 0h27l18 3 14 4 15 8 14 10 14 13 10 13 8 14 5 12 2 6v5l-2-3-6-16-7-12-4-3-7-4-10-7-3-1v-2l-4-2-7-7-13-8-11-3-22-1-28 2-12 2-14 3-18 6-11 7-14 12-10 8-5 3-4 4h-2v-6l10-15 9-11 7-7 13-10 14-8 13-5 14-3z" fill="#BC570A"/>
<path transform="translate(795,566)" d="m0 0 2 2 6 20 13 29 10 18 11 16 9 12 9 10 11 11 17 13 15 10 13 8 29 13 27 8 24 6 22 3h12l22-3 47-12 15-6 23-11 19-12 17-12 12-11 10-9 1-2h2l2-4 9-10 4-4-2 5-13 15-15 15-11 9-17 12-18 11-7 4-17 9-3 3-10 7-9 4-14 3-32 6-18 1-17-1-10-3-26-1-11-4-6-4-3-5-7-2-11-5-18-8-8-5-10-6-10-7-17-13-10-8-7-8-9-10-10-13-10-15-10-18-13-32-4-15z" fill="#BC570A"/>
<path transform="translate(795,566)" d="m0 0 2 2 6 20 13 29 10 18 11 16 9 12 9 10 11 11 17 13 15 10 13 8 29 13 9 3-1 3-6-1-11-5-18-8-8-5-10-6-10-7-17-13-10-8-7-8-9-10-10-13-10-15-10-18-13-32-4-15z" fill="#C05A0A"/>
<path transform="translate(936,552)" d="m0 0 2 1-20 20-9 11-5 7h-3v2h-2l-1 4-5 5h-2l-2 4-3 1-2 4-1 3h-2l-2 6-4 6-1-3 7-13 12-14 17-17 7-8z" fill="#C75F0A"/>
<path transform="translate(1207,649)" d="m0 0 1 2-8 10-11 12-11 11-11 9-17 12-16 10-2-1 3-3 16-10 17-12 12-11 10-9 1-2h2l2-4 9-10z" fill="#C35D0A"/>
<path transform="translate(898,593)" d="m0 0 1 3-5 5-3 1-2 4-3 1-2 4-1 3h-2l-2 6-4 6-1-3 7-13 5-6 8-7z" fill="#BD580A"/>
<path transform="translate(1207,649)" d="m0 0 1 2-8 10-11 12-11 11h-2l2-4 12-11 1-2h2l2-4 9-10z" fill="#C35C0A"/>
<path transform="translate(795,566)" d="m0 0 2 2 6 20 4 10-3-1-6-15-3-12z" fill="#C45D0A"/>
<path transform="translate(885,607)" d="m0 0v3l-2 4h-2l-2 6-4 6-1-3 7-13z" fill="#C15B0A"/>
<path transform="translate(1175,683)" d="m0 0v3l-9 8-7 5-2-1 4-4 13-10z" fill="#BF590A"/>
<path transform="translate(1207,649)" d="m0 0 1 2-8 10-4 2 6-8z" fill="#C55E0A"/>
</svg>
