<?xml version="1.0" encoding="UTF-8"?>
<svg version="1.1" viewBox="0 0 2048 1024" width="200" height="100" xmlns="http://www.w3.org/2000/svg">
<path transform="translate(0)" d="m0 0h2048v1024h-2048z" fill="#FEFEFE"/>
<path transform="translate(1e3 196)" d="m0 0h49l26 3 31 6 22 7 19 7 22 10 23 13 15 10 14 10 13 11 12 11 11 11 8 10 11 13 12 17 12 20 12 23 9 21 8 24 6 27 4 28 1 14v36l-3 33-4 24-6 24-10 28-10 22-14 24-8 12-9 12-9 11-10 11-7 8-10 10-8 7-15 12-21 14-17 10-16 8-20 9-19 7-21 6-31 6-24 3-17 1h-14l-27-2-32-5-32-8-20-7-18-8-20-10-19-12-17-12-16-13-14-12-12-12-18-22-13-18-13-21-11-21-11-27-7-24-5-24-4-27-1-10v-38l3-31 4-24 6-24 9-25 11-24 11-20 20-30 9-11 14-15 18-18 11-9 18-14 23-15 22-12 24-10 24-8 27-6 28-4z" fill="#222"/>
<path transform="translate(886,420)" d="m0 0 4 1 13 13 9 14 6 10 4 6 8 6 8 8 5 4 5 6 4 3-17 5-5-2-2 4-11 4-6 2 9-2 6-2 7-1 5-3 14-3h7l2 2 6 1 8 5 6 3 13-1 26-8 19-4 12-4 15-2 12-4h2v2l-5 3h-2l-1 4-6 4-7 3-8 9-7 8-9 7-9 6-9 8-6 4-9 7-16 13-6 5 9-6 22-18 15-11 8-6 14-11 10-9 6-4 10-7 10-10 5-2 1 4-4 5-3 8-6 7-6 8-3 3-10 14-10 13-7 9-8 9-15 20-8 11-8 8-8 10-9 14-7 9-12 17-8 9h-2l-2 5-4 1v4l-16 22-12 9-7 3-11 1-5-2h-11l-13-3-23-8-10-6-6-5v-3l-3-1 2-7 11-8 3-1 1-3 2-2-8 6-6 4-1 2h-3v2h-2v6l-4-2v-2l-5-1-7-8-8-16-5-16-2-14v-11l1-3h-2l1-14 4-24 6-20 2-5 3-2-1-4 8-18 12-23 21-33 8-10 6-9 5-9 5-4 5-5z" fill="#FCFCFC"/>
<path transform="translate(886,420)" d="m0 0 4 1 13 13 9 14 6 10 4 6 8 6 8 8 5 4 5 6 4 3-17 5-5-2-2 4-11 4-12 4h-3l-3-12-3-20v-19l-3-11 1 6v13l6 40-2 4-13 4-9 2-6 3-32 10-14 7 20-8h4l1 3 2-5 19-5 6-1 2 3v-6l12-4 9-1 2 5 5 37-1 4-8 4-21 8-20 8-4 1-16 8-12 5-12 6-9 4-2-1 3-18 5-25 5-13h4l1-7h-4l1-6 14-29 13-22 9-14 10-14 6-8 7-12 5-4 5-5z" fill="#FBFBFB"/>
<path transform="translate(892,441)" d="m0 0 2 1 3 13v19l4 26 1 6 8-2 7-1 9-3 7-1 5-3 14-3h7l2 2 6 1 8 5 6 3 13-1 26-8 19-4 12-4 15-2 12-4h2v2l-5 3h-2l-1 4-6 4-7 3-8 9-7 8-9 7-9 6-9 8-6 4-9 7-16 13-7 5-3 4-5 3-4 5-11 7-4 1 4-4 8-6 2-2v-12l-2-15v-12l-17 7-10 4v10l1 4 2 21 4 17 3 25v14h2l3 5 10-10 5-6 5-3 3-5 3-2-2 5-1 3-5 5-13 14-7 6-7 9-4 3h-3l-1 3-6 2 1-5 14-14 1-9-3-32v-10l-20 12-5 4-1 2 1 32h-1l-1-9v-9h-2l-2-11-18 11-1 14h-1l-2-8-9 6-4 1 4-4 7-4 1-2v-9l-6-36-1-16 2 1 2 13 6 36 1 3h6v-2l6-3 7-4 1-5-6-48-20 6-7 4-24 8-2 3h-3l-21 9-4 3-9 3-3-1 16-8 22-10 2-2 6-1 27-11 18-7 1-4-5-37-1-5-19 5h-2l1 12h-1l-2-8-19 4-6 2-1 8-2-4v-3l-17 6-7 3-3-1 20-9 32-10 5-2 18-5 3-3-5-34-1-8v-12z" fill="#F7F7F7"/>
<path transform="translate(1088,480)" d="m0 0 2 1-1 4-3 4-3 8-6 7-6 8-3 3-10 14-10 13-7 9-8 9-15 20-8 11-8 8h-3v-2h2l-1-2-6 4 1-6-6 11-2 3-4 2h-3l-2 5-4 4-2 4-8 6-7 8-6 5-2-6h-2l-3-32-2-13-3-11-2-21-1-4v-10l13-6 12-5h3l2 23 1 4v12l-9 8-4 3 10-6 9-9 11-6 12-10 9-7 11-9 10-7 8-6 14-11 10-9 6-4 10-7 10-10z" fill="#FAFAFA"/>
<path transform="translate(1226,303)" d="m0 0h3v6l-6 8-10 14-8 12-12 14-8 9-7 10-5 6-1 5 6 7 9 14v2l4 2 3 9 1 15-4 8-5 4-5 5-12 6-18 6-7 2-24 4-15 3v-3l6-9 9-14 10-13 13-18 14-18 9-9 3-6-1-6-3-3-2-21 3-10 4-6 9-9 13-10 14-8 12-6z" fill="#AEAEAE"/>
<path transform="translate(995,591)" d="m0 0 1 4v2l5-3v3h-2v2h2l-2 4-5 6-9 14-7 9-12 17-8 9h-2l-2 5-4 1v4l-16 22-12 9-7 3-11 1-5-2h-11l-6-1 2-5 5-1 3-5v-63l10-7 7-4h2l2 4v7h2l1 8-1-22 4-5 21-13h2l4 42-1 9-15 15-1 4 6-3 1-2 7-4 8-10h2l2-4 8-7 10-12h2l1-5 4-8 4-2h3l2-5z" fill="#F8F8F8"/>
<path transform="translate(892,441)" d="m0 0 2 1 3 13v19l4 26 1 6 8-2v2l-7 1 3 26 3 20 23-9 3-1 1-2 20-8 18-8 10-4 16-9 5-1v2l-4 4-14 6-11 5-10 4 2 26 2 6 3 2 5-1-2 3-5 3-4 5-11 7-4 1 4-4 8-6 2-2v-12l-2-15v-12l-17 7-10 4v10l1 4 2 21 4 17 3 25v14h2l3 5 10-10 5-6 5-3 3-5 3-2-2 5-1 3-5 5-13 14-7 6-7 9-4 3h-3l-1 3-6 2 1-5 14-14 1-9-3-32v-10l-20 12-5 4-1 2 1 32h-1l-1-9v-9h-2l-2-11-18 11-1 14h-1l-2-8-9 6-4 1 4-4 7-4 1-2v-9l-6-36-1-16 2 1 2 13 6 36 1 3h6v-2l6-3 7-4 1-5-6-48-20 6-7 4-24 8-2 3h-3l-21 9-4 3-9 3-3-1 16-8 22-10 2-2 6-1 27-11 18-7 1-4-5-37-1-5-19 5h-2l1 12h-1l-2-8-19 4-6 2-1 8-2-4v-3l-17 6-7 3-3-1 20-9 32-10 5-2 18-5 3-3-5-34-1-8v-12z" fill="#222"/>
<path transform="translate(905,558)" d="m0 0 2 1 6 48-1 5-11 7h-3v2l-6 1-3-9-5-31-2-13 2 23 5 28v9l-5 5-17 10h-4l-4-28-5-30v-9l12-5 13-4 7-4z" fill="#FCFCFC"/>
<path transform="translate(895,509)" d="m0 0h4l2 5 5 37-1 4-8 4-21 8-20 8-4-1-1-4-2-26v-12l1-8 7-3 19-4 2 3v-6l12-4z" fill="#FCFCFC"/>
<path transform="translate(844,525)" d="m0 0h4l1 3 3 42v6l-16 8-12 5-12 6-9 4-2-1 3-18 5-25 5-13h4l1-6 5-1v-2l10-4z" fill="#FCFCFC"/>
<path transform="translate(889,631)" d="m0 0 2 4 1 5 1 29v20l-4 6h-5l-1 4-8-1-9-3-2-3-1-6-1-35 4-6 7-4h3v-2l12-7z" fill="#FCFCFC"/>
<path transform="translate(914,455)" d="m0 0h2l6 9 8 6 8 8 5 4 5 6 4 3-17 5-5-2-2 4-11 4-12 4h-3l-3-12-3-20v-14l2-4h13l3 1z" fill="#FBFBFB"/>
<path transform="translate(940,594)" d="m0 0h2l4 42-1 9-15 15-2 5-5 4h-2l2-5h-2l-1-1-4-42-1-1v-8l4-5z" fill="#FDFDFD"/>
<path transform="translate(932,546)" d="m0 0h3l2 26 3 15v5l-11 8-13 8h-2l-5-38-1-13 5-4z" fill="#F8F8F8"/>
<path transform="translate(905,558)" d="m0 0 2 1 6 48-1 5-11 7h-3v2l-6 1-3-9-5-31-2-13-2 2-1-3 7-4z" fill="#FAFAFA"/>
<path transform="translate(909,615)" d="m0 0h2l2 4 2 20 2 29-4 8-8 7-8 6-1-1-3-45-1-3v-14l10-7z" fill="#FEFEFE"/>
<path transform="translate(926,500)" d="m0 0h4l5 39v4l-8 4-18 7-2-6-4-29v-12z" fill="#FAFAFA"/>
<path transform="translate(961,533)" d="m0 0h3l2 23 1 4v12l-9 8-5 3 1 2-8 5h-2l-1 3-3-9-2-11-1-15-1-4v-10l13-6z" fill="#FAFAFA"/>
<path transform="translate(895,509)" d="m0 0h4l2 5 5 37-1 4-8 4-11 4h-3l-4-28-1-21 12-4z" fill="#F9F9F9"/>
<path transform="translate(887,464)" d="m0 0 6 1 3 10 4 29-4 4-19 5-2-8-2-25-2-13 7 1v-2z" fill="#FBFBFB"/>
<path transform="translate(1226,303)" d="m0 0h3v6l-6 8-10 14-8 12-12 14-8 9-4 6-1-2 1-3-2-4 2-8 6-9-4 1v-3h2v-2l10-10 4-2 2-10 1-3 5-4-1-2 12-6z" fill="#AEAEAE"/>
<path transform="translate(1204,312)" d="m0 0 4 1-4 4h-2l-1 9-2 4-6 4-6 8h-2v2h-2v3l4-1-2 5-4 6-1 8 2 3-4 6h-5l-5-5-2-3-3-14 5-12 11-11 13-10z" fill="#FAFAFA"/>
<path transform="translate(1165,391)" d="m0 0h2l4 5v10l-1 1v11l2 13 1 3-2 5-10 6-3 3-7 2-7-1-1-8 11-13 4-7 1-7-8 4h-2l1-4 3-6 2-7z" fill="#FDFDFD"/>
<path transform="translate(857,651)" d="m0 0h3l1 7 2 34-8-1-12-6-7-6v-3l-3-1 2-7 11-8 3-1 1-3z" fill="#FAFAFA"/>
<path transform="translate(916,621)" d="m0 0h1l4 42 5-1-4 5-1 2 2 1-4 5v5l-4 1h-3l-9 6-4 4v6l1 3-1 1h-11l-6-1 2-5 5-1 3-5v-49l2 3 2 35 1 10 8-6 8-7 3-7-2-29v-13h1l1 8z" fill="#A2A2A2"/>
<path transform="translate(1181,403)" d="m0 0 4 2 2 5 4 2 3 9 1 15-2 5-4 1-2-2-3 2-3-4-3-10-3-4 1-5 3-3h2z" fill="#F8F8F8"/>
<path transform="translate(943,596)" d="m0 0h1l3 25v14h2l3 5 10-10 5-6 5-3 3-5 3-2-2 5-1 3-5 5-13 14-7 6-7 9-4 3h-3l-1 3-6 2 1-5 14-14 1-9-3-32v-6z" fill="#8E8E8E"/>
<path transform="translate(924,466)" d="m0 0 5 3 9 9 5 4 5 6 4 3-17 5-6-2-3-17z" fill="#F4F4F4"/>
<path transform="translate(1165,446)" d="m0 0 4 2 3 4v2l4-1-2 4-19 7-8 2h-9v-2l9-4 5-6 7-3h3l1-4z" fill="#FCFCFC"/>
<path transform="translate(851,578)" d="m0 0 3 2 6 36 3 23v5l7-3 6-2v2l-10 5-3 5 1 35 2 8-5-1 2-1-1-2-2-32v-7l-6 2 5-5 1-9-4-29-4-25v-2l-6-1z" fill="#AEAEAE"/>
<path transform="translate(1e3 511)" d="m0 0h2v2l-4 4-14 6-11 5-10 4 2 26 2 6 3 2 5-1-2 3-5 3-4 5-11 7-4 1 4-4 8-6 2-2v-12l-2-15v-12l-8 2 2-3 16-7 10-4 16-9z" fill="#222"/>
<path transform="translate(881,568)" d="m0 0 2 1 2 13 6 36 1 3h6v-2l12-6 3 1 1 4v8h-1l-2-11-18 11-1 14h-1l-2-8-9 6-4 1 4-4 7-4 1-2v-9l-6-36z" fill="#A4A4A4"/>
<path transform="translate(816,536)" d="m0 0h3v6l-3 1-2-1-3 10-4 18-5 28 11-4 2 2-11 5-2 2v-2h-2l1-14 4-24 6-20 2-5z" fill="#AEAEAE"/>
<path transform="translate(877,461)" d="m0 0h4v2l3 1-3 2h-3v2h-6l2 12 2 25 1 7-2 1-3-23-2-20-10 1 3-2 5-5 3-2z" fill="#999"/>
<path transform="translate(876,512)" d="m0 0 2 1 1 13h-1l-2-8-19 4-6 2-1 8-2-4v-3l-17 6-7 3-3-1 20-9 32-10z" fill="#222"/>
<path transform="translate(916,621)" d="m0 0h1l4 42 5-1-5 5h-2l-3 3-1-18-1-13v-13h1l1 8zm-1 49 1 3-2-1z" fill="#A5A5A5"/>
<path transform="translate(965,536)" d="m0 0h1l2 22 2 6 3 2 5-1-2 3-5 3-4 5-11 7-4 1 4-4 8-6 2-2v-12l-2-15v-8z" fill="#636363"/>
<path transform="translate(1044,494)" d="m0 0 2 1-5 4-9 4-2 3h-2l-1 2v-2l-18 8h-2l1-4 18-8 7-3 8-4z" fill="#222"/>
<path transform="translate(936,554)" d="m0 0 2 4 2 21 3 11v8l-1-4-20 12h-3l8-6 12-8-1-11-2-9z" fill="#333"/>
<path transform="translate(826,603)" d="m0 0 2 1 3 53v8h-1l-3-22z" fill="#AEAEAE"/>
<path transform="translate(851,523)" d="m0 0 2 1-1 1v21l2 28 2 1-4-1-1-4-2-26v-12l1-8z" fill="#AFAFAF"/>
<path transform="translate(879,526)" d="m0 0 2 1 4 25 1 11h-3l-4-28z" fill="#818181"/>
<path transform="translate(881,568)" d="m0 0 2 1 2 13 3 20v7h-2l-4-25z" fill="#A0A0A0"/>
<path transform="translate(995,591)" d="m0 0 1 4v2l5-3v3h-2v2h2l-2 4-5 4v-6l-5 5-2 3-4-1 4-1 2-5z" fill="#AEAEAE"/>
<path transform="translate(863,648)" d="m0 0v3l1 35 2 8-5-1 2-1-1-2-2-32-1-8z" fill="#AEAEAE"/>
<path transform="translate(919,665)" d="m0 0 2 1v3l2 1-4 5v5l-4 1h-3l-3-1 5-7h2l1-4z" fill="#6D6D6D"/>
<path transform="translate(931,500)" d="m0 0h1l4 31v9l3 1-3 1-2-3-4-29z" fill="#909090"/>
<path transform="translate(851,578)" d="m0 0 3 2 4 25v6l-2-1-4-25v-2l-6-1z" fill="#AEAEAE"/>
<path transform="translate(918,652)" d="m0 0 2 2 1 9 5-1-5 5h-2l-3 3v-17zm-3 18 1 3-2-1z" fill="#AEAEAE"/>
<path transform="translate(826,508)" d="m0 0 1 3-7 17-2 6h6l-3 2-6-1 1-6z" fill="#A9A9A9"/>
<path transform="translate(816,536)" d="m0 0h3v6l-3 1-2-1-3 10-1 3h-2l2-9 3-8z" fill="#AEAEAE"/>
<path transform="translate(890,622)" d="m0 0 5 1-2 3-1 14h-1l-2-8-9 6-4 1 4-4 7-4z" fill="#222"/>
<path transform="translate(943,596)" d="m0 0h1l2 15v14l-2-2-2-19v-6z" fill="#939393"/>
<path transform="translate(970,568)" d="m0 0 3 1-6 7-11 7-4 1 4-4 8-6 3-5z" fill="#222"/>
<path transform="translate(924,466)" d="m0 0 4 2 1 9 2 14-2 3-3-17z" fill="#aaa"/>
<path transform="translate(1078,481)" d="m0 0h2v2l-5 3h-2l-1 4h-3l-1-3-2-2z" fill="#AEAEAE"/>
<path transform="translate(963,630)" d="m0 0 2 3-8 8-5 4-1-3z" fill="#A8A8A8"/>
<path transform="translate(852,653)" d="m0 0 2 1-10 9-8 5-2-2h3l1-3 10-7z" fill="#777"/>
<path transform="translate(909,613)" d="m0 0 4 1 1 4v8h-1l-2-11-12 7-3-1h2v-2l6-3z" fill="#989898"/>
<path transform="translate(874,639)" d="m0 0h2v2l-10 5-5 4-5 3-2-1 5-4 1-2z" fill="#282828"/>
<path transform="translate(883,544)" d="m0 0h1l2 19h-3l-2-15h2z" fill="#AEAEAE"/>
<path transform="translate(1064,486)" d="m0 0h5l1 4-4 4h-4z" fill="#D8D8D8"/>
<path transform="translate(913,452)" d="m0 0 2 3-1 2-16-1-1 3v-4l11-2z" fill="#B1B1B1"/>
<path transform="translate(977,614)" d="m0 0v3l-2 5-5 5-6 5 2-4 4-6 2-1 3-5z" fill="#222"/>
<path transform="translate(881,568)" d="m0 0 2 1 2 13-1 4-2-2z" fill="#717171"/>
<path transform="translate(965,536)" d="m0 0h1l1 14-1 6h-1l-1-19z" fill="#969696"/>
<path transform="translate(812,594)" d="m0 0 3 2-11 5-2 2v-2h-2v-2z" fill="#A1A1A1"/>
<path transform="translate(1e3 510)" d="m0 0h5v5h-2l1 10-2-1-1-9-3 2 2-4h2v-2z" fill="#B5B5B5"/>
<path transform="translate(1168,456)" d="m0 0h6l-2 2-17 6-4-1 10-4z" fill="#AEAEAE"/>
<path transform="translate(911,676)" d="m0 0v3l-1 3-8 6-2-1z" fill="#AEAEAE"/>
<path transform="translate(851,578)" d="m0 0 3 2v6l-2-1v-2l-6-1z" fill="#B0B0B0"/>
<path transform="translate(917,674)" d="m0 0 2 1v5l-4 1-2-3z" fill="#898989"/>
<path transform="translate(892,429)" d="m0 0 3 1-1 12-2-1z" fill="#AEAEAE"/>
<path transform="translate(950,584)" d="m0 0 4 1-8 5h-2l-1 3-1-5z" fill="#9D9D9D"/>
</svg>
