<?xml version="1.0" encoding="UTF-8"?>
<svg version="1.1" viewBox="0 0 2048 1024" width="200" height="100" xmlns="http://www.w3.org/2000/svg">
<path transform="translate(0)" d="m0 0h2048v1024h-2048z" fill="#FCFCFD"/>
<path transform="translate(1343,212)" d="m0 0h1l1 265 1 53v47l-2 21-4 11-2 2-5-1-6-3 12 36 5 26 3 23 2 23v6l-1 1-22 1h-73l-12-1-1-2-3-32-4-21-8-23-8-18-10-18-7-10-6 12-14 34-8 19-10 23-13 29-8 17-10 19-9 16-11 16-8 10-11 11-14 10-17 9-16 5-6 1h-26l-14-3-16-6-16-9-10-8-13-13-7-10-8-14-6-16-3-15-1-8v-16l3-17 6-16 10-17 11-13 10-9 18-12 33-17 27-13 21-9 13-6 39-16 23-9 15-6 4-1-1-3-18-10-19-10-27-10-14-4-43-7h-11l-40 7-19 5-21 8-21 10-18 12-12 9-12 11-7 6-9 11-13 17-11 18-10 21-8 24-6 26-4 28-1 3h-83l-20-1v-15l3-34 5-28 5-20 7-20 8-18 4-8v-3l-5 5-10 17-5 6-3 1-3-4-3-11-2-20-1-39v-184l1-54h1v24h43l83 1h152l122 1h200l37 1z" fill="#D8EEFE"/>
<path transform="translate(825,187)" d="m0 0h456l29 1 13 4 9 6 10 11 1 2v108h-237l-145-1h-134l-78-1-43-1v-37l2-50 1-17 3-5 7-7 8-5 11-4 14-2z" fill="#B8D8FF"/>
<path transform="translate(1010,399)" d="m0 0h22l25 2 36 6 23 6 24 8 20 9 20 10 17 10 19 13 18 14 14 12 6 7-18 18-6 7-17 7-30 11-25 10-6-1-10-6-18-10-15-7-28-10-25-5-26-4h-11l-40 7-19 5-21 8-21 10-18 12-12 9-12 11-7 6-9 11-13 17-11 18-10 21-8 24-6 26-4 28-1 3h-83l-20-1v-15l3-34 5-28 5-20 7-20 8-18 12-23 14-22 9-12 13-16 12-13 16-16 8-7 17-14 15-10 17-11 27-14 20-8 28-9 26-6 32-5z" fill="#065CE2"/>
<path transform="translate(1227,521)" d="m0 0 2 1-5 8-11 29-10 27-4 13-11 25-14 35-12 27-13 29-8 17-10 19-9 16-11 16-8 10-11 11-14 10-17 9-16 5-6 1h-26l-14-3-16-6-16-9-10-8-13-13-7-10-8-14-6-16-3-15-1-8v-16l3-17 6-16 10-17 11-13 10-9 18-12 33-17 27-13 21-9 13-6 39-16 23-9 15-6 4-1v-2l9-1 27-11 33-12z" fill="#5FC6FF"/>
<path transform="translate(1019,505)" d="m0 0h11l43 7 20 6 21 8 23 12 14 8 1 4-16 7-16 6-37 15-24 10-49 23-24 12-14 8-14 10-12 11-10 14-8 14-5 14-3 17v21l-3-4-6-1-64-1-29-1-5-2-2-7h-2v5l-2 1 3-24 5-25 6-21 8-20 11-21 12-17 13-16 9-10 8-7 12-10 21-14 19-10 26-10 19-5z" fill="#D6EEFE"/>
<path transform="translate(1252,496)" d="m0 0 5 1 8 8 9 11 14 19 14 22 12 22 14 31 11 33 5 26 3 23 2 23v6l-1 1-22 1h-73l-12-1-1-2-3-32-4-21-8-23-8-18-10-18-7-10 1-9 9-25 13-34 5-8 16-17z" fill="#B766F7"/>
<path transform="translate(1015,669)" d="m0 0h18l15 5 11 7 8 8 8 13 4 13v11l-3 14-5 10-9 11-10 8-12 6-8 2h-12l-14-4-12-7-7-6-9-12-5-12-2-8 1-14 4-12 7-12 12-12 10-6z" fill="#065CE2"/>
<path transform="translate(1199,597)" d="m0 0 5 5 9 15 8 15 8 20 6 19 3 17 3 32v2l75 1v1h-129l-21-2-9-5-1-3-6-1 3-9 13-29 12-28 10-25 10-23z" fill="#D8EEFE"/>
<path transform="translate(852,228)" d="m0 0h23l7 3 4 5 1 5v25l-5 8-9 3-6 1h-12l-11-4-4-5-3-11v-12l3-10 4-5z" fill="#FBFCFD"/>
<path transform="translate(757,227)" d="m0 0h21l10 3 3 4 2 8 1 9v11l-3 8-4 4-3 1-17 1-13-1-6-3-3-4-1-3v-25l3-8 6-4z" fill="#FBFCFD"/>
<path transform="translate(1111,410)" d="m0 0h7l21 6 25 10 20 10 22 13 17 12 14 11 13 12 4 6v3l-4-1-12-11-17-13-12-9-17-11-22-12-23-11-21-8-10-3z" fill="#E4F3FD"/>
<path transform="translate(1014,507)" d="m0 0h20l20 3v1h-20l-6-1h-25v-1z" fill="#B8D8FF"/>
<path transform="translate(913,418)" d="m0 0h5l-3 2-16 6-4 2h-3l2-4 7-4 7 1v-2z" fill="#C7E8FD"/>
<path transform="translate(1143,544)" d="m0 0 5 1 1 3-2 3h-4l-1-5z" fill="#FAFBFD"/>
</svg>
