<?xml version="1.0" encoding="UTF-8"?>
<svg version="1.1" viewBox="0 0 2048 1024" width="200" height="100" xmlns="http://www.w3.org/2000/svg">
<path transform="translate(0)" d="m0 0h2048v1024h-2048z" fill="#FFFEFE"/>
<path transform="translate(1272,318)" d="m0 0h86l5 10 9 29 9 34 17 66 19 74 20 78v5l-16 1h-66l-1-2-2-23-3-17-3-1h-35l-30 1-5 3-2 5-4 23-1 9-4 2h-246l-1-1-1-10v-233l1-51 4-1h75l1 1v234l7 1h78l5 2 1 41h3l4-10 6-25 16-64 16-62 17-65 13-50 2-3z" fill="#2EC488"/>
<path transform="translate(202,318)" d="m0 0h44l16 1 2 4 11 71 6 45 7 54 3 16h2l2-19 4-28 12-60 11-50 7-31 1-2 3-1h70l4 4 10 42 8 44 14 71 5 28 1 4h2l1-8 6-45 8-50 14-88 1-1 7-1h33l35 1 5 1-6 26-9 38-8 39-25 115-12 55-5 21-5 1h-83l-3-1-3-13-17-95-6-37-4-13-5-5-1 12-6 32-14 72-10 46-6 2h-72l-12-1-3-9-10-44-9-42-12-55-10-49-10-48-10-45v-3z" fill="#2EC488"/>
<path transform="translate(638,318)" d="m0 0h62l32 1 4 11 11 40 13 51 13 49 21 82 15 58v4l-9 1h-72l-1-1-3-27-3-11-2-2-4-1h-61l-6 2-3 9-4 27-2 3-12 1h-55l-11-1 1-8 20-79 11-41 11-42 21-81 12-43z" fill="#2EC488"/>
<path transform="translate(1517,316)" d="m0 0h75l11 2 11 4 14 7 11 9 7 8 5 10 3 15 1 18v34l-2 5-3 2-13 1h-62l-1-1-1-52-3-3-14-1h-17l-2 4-1 27v141l2 10 3 3 5 1h13l10-2 3-1 1-4 1-47 2-1 21-1h40l18 1 1 1v32l-2 26-4 15-4 10-11 11-16 9-14 5-5 1-29 1h-55l-13-2-11-4-17-9-10-9-6-9-3-12-1-8-1-29v-140l1-25 2-14 6-12 5-6 11-8 19-9 12-3z" fill="#2EC488"/>
<path transform="translate(1699,318)" d="m0 0h119l36 1 8 1-2 41-1 14-2 3-26 1-67 1-1 12v44l83 1 1 1v32l-1 23-1 1-75 1-6 2v56l1 1 97 1 1 1v29l-1 23-2 5-14 1-92 1h-71l-1-1v-43l1-252z" fill="#2EC488"/>
<path transform="translate(828,319)" d="m0 0h67l13 1 1 2v36l-1 197 82 1 8 2v32l-1 22-1 2-32 1h-133l-2-1-1-19-1-68v-126z" fill="#2EC488"/>
<path transform="translate(682,418)" d="m0 0 5 5 4 8 6 27 9 46v8l-1 1h-41l-2-1 1-10 7-29 9-44 2-10z" fill="#FFFEFE"/>
<path transform="translate(1314,415)" d="m0 0h3l3 13 5 30 8 36 1 7v10l-1 1-36 1-7-1v-7l7-24 11-50 4-14z" fill="#FFFEFE"/>
</svg>
