<?xml version="1.0" encoding="UTF-8"?>
<svg version="1.1" viewBox="0 0 2048 1024" width="200" height="100" xmlns="http://www.w3.org/2000/svg">
<path transform="translate(0)" d="m0 0h2048v1024h-2048z" fill="#080F13"/>
<path transform="translate(1350,319)" d="m0 0h8l4 6 5 15 10 35 16 65 19 74 15 58 7 30 1 11h-64l-13-1-2-4-3-22-3-17-69 1-3 3-6 18-3 12-1 8-3 2h-245l-1-1-1-57v-199l1-36h77l1 1 1 236h88l4 2-2 33v7l1 3 3-1 4-12 9-37 16-64 7-26 14-55 10-39 9-29 6-19h46z" fill="#20C681"/>
<path transform="translate(183,319)" d="m0 0 80 1 6 36 4 32 4 34 6 46 4 27 4 17h3l1-13 5-34 19-97 8-32 3-13 2-3 14 2h14l44-2 2 2 4 16 6 26 10 51 10 53 6 34 3 10h2l2-12 8-55 15-93 5-28 1-4 8 1h32l22-1 14-1 1 3-9 42-21 100-14 66-9 41-9 34-3 7-3 1h-83l-3-5-20-100-8-38-5-20v-3l-2 1-5 28-8 43-10 57-8 34-1 2-7 1h-77l-5-4-6-21-11-48-15-71-9-42-11-51-8-40z" fill="#20C681"/>
<path transform="translate(639,320)" d="m0 0 10 1h82l4 9 8 25 9 34 6 26 9 35 21 82 8 29 9 35 3 16-2 2-76-1-2-4-5-30-2-9-1-1-59 1-12 1-3 8-5 26-1 7-8 1h-70v-7l11-42 17-66 13-50 16-64 8-27 8-26 3-10z" fill="#20C681"/>
<path transform="translate(1521,318)" d="m0 0h57l22 2 16 4 9 4 11 7 8 8 7 14 2 7 1 11v53l-74 1-5-2-1-5v-47l-2-2-5-1h-21l-9 2-1 2-1 127v47l1 9 10 2h19l8-4 1-13v-33l2-5h73l5 1v53l-2 15-4 11-8 9-15 10-11 5-19 3h-86l-12-2-16-8-13-10-7-8-5-13-1-7-1-148v-48l2-11 7-10 9-10 14-10 12-6 14-3z" fill="#20C681"/>
<path transform="translate(1702,319)" d="m0 0h118l38 1 2 1-1 50-1 5-24 1h-36l-35-1v62h82l1 1v53l-3 1h-79v63l98 1 1 1v48l-2 6-31 1h-145l-2-2v-91l1-200z" fill="#20C681"/>
<path transform="translate(829,320)" d="m0 0 6 1h72l1 235 83 1 6 1v54l-3 1-162 1-2-1-2-12-1-221 1-59z" fill="#20C681"/>
<path transform="translate(682,412)" d="m0 0 3 3 6 18 8 34 9 41v5h-48l2-13 11-48 8-39z" fill="#080F13"/>
<path transform="translate(1313,412)" d="m0 0 3 1 4 17 8 42 9 38v2l-4 1h-45l4-17 15-66 5-16z" fill="#080F13"/>
<path transform="translate(1486,601)" d="m0 0 10 2 4 1 14 2h87l7 1 9 1-3 2-19 3h-86l-12-2-16-8v-1z" fill="#0CB470"/>
<path transform="translate(1118,606)" d="m0 0h27l2 1h11l1 1h10l7 1h47l5-1h13l7 2 14 1 3 2h-232v-1h41v-2l6-2 13-1h14z" fill="#0CB470"/>
<path transform="translate(906,605)" d="m0 0h41l10 3v2l10 1 27 1v1l-162 1-2-1 1-2 11-1 14-1 9-1 17-2h20z" fill="#0CB470"/>
<path transform="translate(829,320)" d="m0 0 6 1h72v191h-1v-190l-39 2h-34l-3-1-1 278h-1l-1-221 1-59z" fill="#0CB470"/>
<path transform="translate(1521,318)" d="m0 0h57l22 2-5 4-4-1-13 1-9 2-5-1-6 1-10 1h-11l-6-2-2-3-6-2h-11v-1z" fill="#0CB470"/>
<path transform="translate(1096,321)" d="m0 0h1l1 236h11v1h-12l-1-1-1-10v-187z" fill="#0CB470"/>
<path transform="translate(1431,593)" d="m0 0 2 4 2 10v6h-64l-13-1 1-2h6l1-2 2-1h14l13-1 3 1 14 1 11 1 6-1 3 1z" fill="#0CB470"/>
<path transform="translate(740,607)" d="m0 0 10 1 6-1h31l13 1 3 2v2l3 1v1l-76-1v-3l7-1z" fill="#0CB470"/>
<path transform="translate(448,606)" d="m0 0 17 3 19 1 6 1-3 2h-83v-1l16-2v-2l8-1z" fill="#0CB470"/>
<path transform="translate(562,606)" d="m0 0h1v6l16-2 5-2 23-1 14 1 1 1 16 2v1l-6 1h-70z" fill="#0CB470"/>
<path transform="translate(1066,320)" d="m0 0h26v1l-16 1-6 1-22 1h-23l-3-3z" fill="#0CB470"/>
<path transform="translate(285,610)" d="m0 0h27l19 1-4 2h-77v-1z" fill="#0CB470"/>
<path transform="translate(189,320)" d="m0 0h68v1l-44 1-15 1-9-2z" fill="#0CB470"/>
<path transform="translate(1575,507)" d="m0 0h1l2 10v8l-1 2-1 12h-1l-1-8v-20z" fill="#0CB470"/>
</svg>
