<?xml version="1.0" encoding="UTF-8"?>
<svg version="1.1" viewBox="0 0 2048 1024" width="200" height="100" xmlns="http://www.w3.org/2000/svg">
<path transform="translate(0)" d="m0 0h2048v1024h-2048z" fill="#7349FD"/>
<path transform="translate(1e3 220)" d="m0 0h25l26 2 25 4 25 7 19 7 19 9 17 10 19 13 11 9 14 12 7 7 7 8 12 15 14 20 12 22 8 18 10 30 5 23 3 24 1 14v16l-2 24-4 23-8 29-11 26-10 19-11 17-9 12-9 11-9 10-7 8-8 7-13 11-19 13-15 9-17 9-23 9-23 7-23 5-15 2-15 1h-17l-23-2-26-5-28-8-22-9-23-11-16-10-19-14-12-11-8-7-10-11-11-14-10-13-9-15-12-23-10-26-6-21-4-21-2-18v-42l3-26 5-24 10-30 12-25 13-20 10-14 11-13 9-10 15-15 11-9 15-11 19-12 16-8 18-8 28-9 19-4z" fill="#FEFEFE"/>
<path transform="translate(1010,290)" d="m0 0h18l21 2 19 4 22 8 24 12 17 11 10 8 10 9 7 8 12 15 11 18 8 15 8 19 6 21 2 10 1 11v33l-3 19-8 27-10 23-10 18-11 16-11 13-13 13-17 13-16 10-16 8-23 9-22 5-22 2-22-1-28-5-21-6-24-10-15-9-11-8-11-9-8-8-6-9-2-6 7-10 11-12 70-70 7-8 10-10 8-7 10-10 7-6 2-4-13-2h-16l-11-1-6-3-4-4-1-9 3-10 6-5 5-2 10-1h68l12 2 6 5 3 10 1 15v39l-1 27-4 8-5 4-5 2-7 1-8-3-6-7-1-5v-28l-1-4-3-1-4 3h-2l-2 4-7 7-7 8-47 47-7 8-16 15-8 8-6 5h-2l-1 6 1 3 4 2 16 9 19 8 18 5 27 4h31l19-3 18-6 16-8 12-7 11-8 10-9 9-9 14-19 12-21 8-24 3-18 1-22-2-28-5-21-6-16-10-19-9-12-11-12-9-9-13-10-15-9-15-7-22-7-22-3-21-1-26 3-19 5-16 7-15 8-14 10-16 12-9 5-5-1-10-8-4-6 1-7 11-13 10-9 17-12 23-12 21-8 21-5 15-2z" fill="#7349FD"/>
</svg>
