<?xml version="1.0" encoding="UTF-8"?>
<svg version="1.1" viewBox="0 0 2048 1024" width="200" height="100" xmlns="http://www.w3.org/2000/svg">
<path transform="translate(0)" d="m0 0h2048v1024h-2048z" fill="#FEFEFE"/>
<path transform="translate(1e3 157)" d="m0 0h38l32 3 32 6 26 7 28 10 26 12 21 12 14 9 18 13 11 9 12 11 10 9 7 8 8 8 9 11 12 15 16 24 12 21 14 29 12 34 6 25 5 28 3 31v38l-4 36-7 34-7 25-9 24-9 20-9 17-12 19-11 16-13 16-9 11-25 25-11 9-15 12-17 12-15 9-18 10-24 11-31 11-28 7-32 6-29 3h-36l-36-4-32-6-26-7-25-9-24-11-17-9-22-14-12-9-10-8-14-12-30-30-9-11-13-17-12-18-11-19-12-24-11-28-7-22-7-32-3-20-2-23v-33l3-34 5-27 8-32 10-28 8-18 8-17 10-17 10-16 14-18 11-13 12-13 14-14 8-7 14-12 18-13 21-13 18-10 28-13 25-9 22-6 29-6 25-3z" fill="#321FCE"/>
<path transform="translate(1018,295)" d="m0 0h15l4 4 1 26v35l-5 4h-29l-20 3-16 6-21 10-18 12-16 15-11 13-12 21-9 21-3 12-2 23v19l2 26 5 16 5 12 6 16v2l8-4 15-14 229-229 5-4 5 1 10 9 8 7 14 14 11 15 10 15 8 14 8 17 9 27 5 21 2 17v33l-4 23-7 25-6 15-8 17-13 22-12 16-12 14-9 9-14 11-12 9-15 9-15 8-20 8-25 7-22 5-18 1-5 1h-7l-3-3-1-3-1-28v-30l2-3h19l21-5 22-6 16-7 15-8 13-10 15-14 11-13 9-14 9-19 6-21 5-23v-17l-4-22-6-24-7-16-4-7-4-1-8 4-40 40-1 2h-2l-1 3-6 5-4 5-6 5-4 5-7 6-1 2h-2v2l-8 7-40 40-4 5-6 5-4 5-6 5-4 5-8 7-90 90-3 1-9-7-7-7-8-7-12-13-10-13-14-22-11-23-6-15-5-18-6-36v-23l4-28 4-18 7-20 8-17 15-25 8-11 8-10 12-13 13-13 16-12 18-11 16-8 21-9 17-5 35-5z" fill="#FEFEFE"/>
</svg>
