<?xml version="1.0" encoding="UTF-8"?>
<svg version="1.1" viewBox="0 0 2048 1024" width="200" height="100" xmlns="http://www.w3.org/2000/svg">
<path transform="translate(0)" d="m0 0h2048v1024h-2048z" fill="#FEFFFE"/>
<path transform="translate(1262,347)" d="m0 0h9l1 2 1 59v109l-3 31-4 21-8 26-9 22-12 22-10 15-10 13-11 13-15 15-9 8-13 10-17 11-14 8-25 11-21 7-31 7-23 3h-23l-32-4-27-6-17-5-23-10-20-11-12-8-14-11-14-12-20-20-12-16-12-18-12-22-9-21-7-24-5-27-2-19-1-27v-124l1-26h14l17 4 10 5 9 9 2 6 1 12 1 121 2 26 5 25 8 26 10 22 9 14 9 12 12 14 15 14 18 13 18 10 20 9 20 6 22 4 11 1h29l22-3 19-5 17-6 24-12 17-12 11-9 10-9 8-8 9-11 10-14 10-18 8-18 5-15 4-18 2-16 1-18 1-132 2-9 5-7 10-7 8-4 6-2z" fill="#9F1AF7"/>
<path transform="translate(778,260)" d="m0 0h21l23 4 20 6 12 5 11 6 13 10 15 15 10 14 8 16 5 15 2 9 1 13 1 108 1 40 3 19 5 15 7 13 9 12 11 11 15 10 16 7 15 4 14 2h15l19-3 16-5 16-9 9-7 8-7 11-14 9-16 4-10 3-15 1-10 1-28 1-114 2-21 4-15 7-16 8-14 11-13 8-8 15-11 19-9 17-5 29-4h21l2 2v54l-31 2-15 3-12 5-9 6-6 5-7 10-4 8-2 10-1 19-1 60v66l-2 23-4 20-5 16-7 16-8 14-11 14-11 12-11 10-15 11-16 9-15 7-19 5-20 3h-26l-22-3-18-4-20-8-20-12-13-10-8-8-5-4-7-8-11-15-9-15-7-15-6-20-3-22-1-23v-122l-1-14-3-11-6-12-8-10-11-7-13-5-15-3-8-1-19-1-4-1v-21l1-30z" fill="#0D6EFD"/>
<path transform="translate(778,260)" d="m0 0h21l23 4 20 6 12 5 11 6 13 10 15 15 10 14 8 16 5 15 2 9 1 13 1 108 1 40 3 19 5 15 7 13 9 12 11 11 15 10 16 7 15 4 9 3v2l5 2-2 4 5 7v5l-3 5-1 11h-3l-2 4-6 4-4 1-2 2h-23l-9-2-16-7-16-10-13-10-8-8-5-4-7-8-11-15-9-15-7-15-6-20-3-22-1-23v-122l-1-14-3-11-6-12-8-10-11-7-13-5-15-3-8-1-19-1-4-1v-21l1-30z" fill="#0D6EFD"/>
<path transform="translate(777,349)" d="m0 0h14l17 4 10 5 9 9 2 6 1 12 1 121 2 26 5 25 8 26 10 22 9 14 9 12 12 14 15 14 18 13 18 10 3 3 1 3-5 5-3 6-3 1-1 5-8 11-5 3-12 2-10-4h-6l-8-4-11-9-13-11-20-20-12-16-12-18-12-22-9-21-7-24-5-27-2-19-1-27v-124z" fill="#0D6EFD"/>
<path transform="translate(1182,512)" d="m0 0h1v12l-3 21-6 22-8 18-8 14-11 14-11 12-11 10-15 11-16 9-15 7-19 5-20 3h-26l-22-3-18-4-3-2h27l2-2 7-3 5-5h3v-12l3-4-1-7-4-5v-3l2-1-4-2v-2l-3-1h23l19-3 16-5 16-9 9-7 8-7 11-14 8-14 1 2 8-1 7 6 12-1 11-4 6-1 5-8 4-7 4-2 3-8 2-9z" fill="#7929F9"/>
<path transform="translate(1262,347)" d="m0 0h9l1 2v99l-1 16-2 6-7 8-3 5-8 1-2 2-13 4-6 5-7 4h-2l-1 3h-2l-1-60v-64l2-9 5-7 10-7 8-4 6-2z" fill="#2C3CFC"/>
<path transform="translate(1165,438)" d="m0 0 4 1 3 7 4 13h3l1-3h2v-9l2-3v66l-1 2-2 16-3 10-8 7-3 6-3 5-5 2-5 1-9 3-11 1-5-4v-2h-10l1-6 4-12 3-21 1-28 1-47 3-1 11 2 4 6 3-1h3l5-2 2-4z" fill="#2E3BFB"/>
<path transform="translate(1272,408)" d="m0 0h1v109l-3 31-4 21-4 14-2-4-1-9h-3l-2 3-9-1-4-2-1 1h-15l-5-5-5-4-6 2 4-20 2-16 1-18 1-68h1v60l5-4 9-6 7-4 10-3 2-2 8-1 5-8 5-5 1-5 1-16z" fill="#7A29F9"/>
<path transform="translate(937,571)" d="m0 0 5 5 7 8 7 7 15 10 16 7 15 4 9 3v2l5 2-2 4 5 7v5l-3 5-1 11h-3l-2 4-6 4-4 1-2 2h-23l-9-2-16-7-16-10-13-10-8-8-4-3v-8l-1-5 6 2 5 2 5 1h12v-2h2l1-7 4-19-1-5-5-8z" fill="#2D3BFB"/>
<path transform="translate(875,634)" d="m0 0 6 5 7 8 13 12 18 13 18 10 3 3 1 3-5 5-3 6-3 1-1 5-8 11-5 3-12 2-10-4h-6l-8-4-11-9-13-11-20-20-9-12 1-2 4 3v2h2l-1-3 3-1v2l4-1 5 3 14 2 6-2 5-10h2v-7l4-2-1-3z" fill="#2D3BFB"/>
<path transform="translate(939,684)" d="m0 0 9 3 15 6 19 5 17 3 11 1 27 1v1l-18 4-7 1-4 2-4 8-5 5-9 10-3 5-5 4-7 3-5 1-9-1h-7l-7-2-15-2-16-7-20-11-12-8 2-1 12 2 6 3 12-2 5-3 7-10 2-5 3-2 4-8 3-3z" fill="#7A29F9"/>
<path transform="translate(1255,348)" d="m0 0h6l-2 1v2l-5 2-3-1 1-3z" fill="#0E6DFD"/>
</svg>
