<?xml version="1.0" encoding="UTF-8"?>
<svg version="1.1" viewBox="0 0 2048 1024" width="200" height="100" xmlns="http://www.w3.org/2000/svg">
<path transform="translate(0)" d="m0 0h2048v1024h-2048z" fill="#FEFEFD"/>
<path transform="translate(431,172)" d="m0 0h31l3 5 8 24 18 62 23 79 21 72 12 41 13 43 22 74 5 14h2l5-19 12-45 14-46 12-40 12-39 14-49 8-27 3-9-1-10-10-33-21-70-8-23-1-3 88-1 4 6 10 31 18 63 14 48 20 69 17 57 15 50 14 48 8 28 5 14 2 1 2-6 3-15 14-48 16-54 15-49 20-68 18-62 20-68 12-40 2-4 7-1h136l190 1 1 1v22l-1 13-5 12-11 20-12 21-15 26-10 17-12 21-13 22-9 16-12 21-11 19-10 16-4 8v2l21 9 16 8 14 9 10 8 10 9 8 8 13 17 13 22 10 21 10 30 5 26 3 24v41l-7 44-5 18-8 21-11 22-12 19-9 12-12 13-12 12-15 11-22 12-19 7-19 5-12 2h-29l-20-3-20-6-19-8-15-9-16-12-15-14-13-15-10-15-14-25-10-23-2-6v-5l8-4 28-11 25-11 5-2h3l8 20 10 17 10 13 14 14 14 9 15 6 17 4h20l14-5 11-6 9-7 9-11 10-16 8-16 7-21 4-19 2-18v-37l-3-23-6-21-5-12-7-13-7-9-6-7-13-10-19-10-20-6-11-2-26-2-32-1-1-1v-34l6-13 12-22 28-48 16-27 9-16 14-24 16-28 10-18 7-10v-3h-139l-6 4-5 12-10 31-21 72-18 61-8 27-19 63-19 65-17 57-15 51-14 48-15 49-12 40-7 20-1 1h-5l-3-4-17-56-17-57-13-43-14-46-14-47-16-53-24-81-6-20-6-12-2-1-3 11-5 22-8 27-20 67-19 63-17 56-21 70-14 47-12 39-6 17-1 2-5-1-3-4-9-31-14-46-20-66-12-40-12-41-16-55-21-71-21-70-20-68-12-41-15-51-17-58-12-40-1-4z" fill="#055899"/>
<path transform="translate(1651,172)" d="m0 0 2 2 7 45 5 29-1 11-6 15-12 22-16 30-10 18-4 6h-4l-10-18-10-13-12-14-13-12-15-10-16-8-9-3-13-2-17 1-16 4-12 5-13 8-13 11-13 14-13 18-13 24-11 27-8 28-7 32-4 33-1 15v37l2 18 4 16-1 3-8-16-7-15-8-32-5-26-2-15-1-22 1-44 3-27 5-28 6-24 9-26 12-26 9-17 7-11 9-12 9-10 8-7 11-9 17-10 14-5 11-2h20l14 3 18 7 18 11 14 12 13 14 12 17 7 11 8 10h2l10-23 10-21 10-19 9-19 6-9z" fill="#302517"/>
<path transform="translate(1320,659)" d="m0 0h2l13 24 10 17 9 13 8 10 11 12 10 10 22 18 16 10 19 9 19 6 20 3h22l18-3 17-5 21-9 16-10 14-10 13-12 10-9 7-8 10-12 11-16 9-15 7-12 1-3h2l8 36 4 17v16l-8 16-10 16-14 18-9 11-12 12-8 7-11 9-16 11-17 9-24 8-14 3-10 1h-11l-22-3-23-6-16-7-16-10-16-12-15-14-10-11-12-16-14-21-13-23-12-25-9-23-4-14z" fill="#302517"/>
</svg>
