<?xml version="1.0" encoding="UTF-8"?>
<svg version="1.1" viewBox="0 0 2048 1024" width="200" height="100" xmlns="http://www.w3.org/2000/svg">
<path transform="translate(0)" d="m0 0h2048v1024h-2048z" fill="#FDFFFE"/>
<path transform="translate(276,172)" d="m0 0h7l4 2 16 55 24 82 14 48 18 60 16 56 13 45 15 51 5 13 2 2 2-9 12-43 13-42 15-51 14-46 12-39 12-42v-12l-5-16-24-79-10-29-1-4 12-1 77-1 3 2 4 17 12 39 18 63 21 71 18 61 16 55 18 62 8 28 4 16 1 1 5-14 20-65 16-55 15-49 21-72 20-67 12-41 11-38 3-12 1-1 60-1h232l43 1-3 36-4 13-11 21-8 14-15 26-13 22-15 26-10 17-13 23-6 10-15 26-8 13-4 7 1 4 25 11 17 9 17 12 15 14 12 14 12 18 8 15 10 23 8 27 4 19 2 15 1 14v39l-2 19-5 25-7 26-10 24-11 20-9 13-11 14-9 10-10 10-14 10-13 8-19 9-17 6-14 3-14 2h-24l-20-3-15-4-17-6-21-11-14-10-13-12-11-11-9-11-12-17-14-25-11-25-2-5 18-8 28-11 19-8h5l5 8 8 16 10 16 11 13 7 7 15 10 14 6 15 4 7 1h18l14-5 11-6 12-11 11-14 10-18 8-21 5-21 2-17 1-31-2-24-6-29-6-16-11-18-11-12-12-9-21-10-17-5-20-3-10-1h-23l-5 1h-9l-2-5v-26l4-17 8-16 16-27 15-26 8-14 10-17 15-26 12-21 13-22 12-21 3-5v-3h-81l-57 1-3 1-8 16-12 36-19 65-13 44-14 46-21 72-13 44-14 47-17 58-13 42-17 60-18 58-6 13-4-2-6-14-14-45-15-50-28-93-10-35-12-39-10-34-15-50-10-34-5-18-4-9-2-1-2 10-19 66-22 72-15 50-13 42-10 35-16 53-18 60-10 33-2 3-5-1-3-5-6-20-20-65-14-47-20-68-21-71-14-47-18-61-15-50-25-86-15-51-19-63-12-40-4-10v-2l8-1z" fill="#055899"/>
<path transform="translate(1633,361)" d="m0 0h181l23 1 1 2-5 54-6 71-5 53-6 66-3 24-3 3-12 5-47 14-40 11-11 1-21-5-55-15-28-8-4-4-3-26-6-63-7-82-6-68-3-32 1-1z" fill="#2758E8"/>
<path transform="translate(1470,172)" d="m0 0h3l3 12 5 29 4 21 1 7v19l-9 19-10 19-15 29-8 14-5 11h-3l-8-14-11-15-9-10-7-8-12-12-15-10-14-7-17-5-14-1-15 2-17 5-13 7-12 9-20 20-12 17-10 17-10 22-11 33-6 26-4 23-2 22-1 16v42l1 17v12l-4-2-8-25-9-33-5-28-2-15v-53l3-32 4-25 7-30 10-30 13-28 12-21 11-14 9-10 9-9 14-10 16-9 15-5 13-2h12l18 4 16 7 13 7 11 8 10 9 10 10 14 19 10 16 4 5 2 1 3-9 20-40 10-19 8-17 3-7z" fill="#2D241A"/>
<path transform="translate(1141,657)" d="m0 0 3 1 8 16 8 14 12 19 11 14 13 15 13 12 11 9 13 10 18 10 19 8 16 4 20 2h14l20-3 16-5 21-9 16-9 11-8 14-11 21-21 10-13 7-10 14-21 7-10 2-5h2l3 14 5 30 3 17-1 9-8 16-9 14-10 14-13 16-21 21-20 15-17 10-20 8-19 5-12 2h-19l-20-3-19-5-12-5-15-8-13-9-10-8-10-9-10-10-9-11-11-14-10-15-10-18-11-21-11-25-6-19-4-16z" fill="#2D241B"/>
<path transform="translate(1775,417)" d="m0 0h8l4 2v10l-3 37-8 82-5 36-3 6-5 3-26 7-19 5-7 1h-13l-31-7-25-6-6-4-3-7-2-11-2-23v-8l1-3 2-1h25l5 2 2 18 3 7 8 4 18 5 15-1 15-3 14-5 3-4 2-20 2-18-90-1-20-1-7-2-1-2-2-27 1-2 4-1h81l35-1 2-1 2-15v-17h-41l-82-1-5-2-1-3-1-13v-12l2-2z" fill="#FDFFFE"/>
<path transform="translate(1194,501)" d="m0 0h1l2 47v12l-4-2 1-2 1-3-2-10-5-9-1-13 1-8 3-1 2-5z" fill="#0B57A2"/>
<path transform="translate(426,527)" d="m0 0h1l-1 9-3 11-1 7-1 5-1 4h-2v10l-3 13-3 4-4-1-1-5 3 2 2-9 12-43z" fill="#2859E9"/>
<path transform="translate(1187,534)" d="m0 0 3 1 4 9 2 11-2 2-2-1-5-17z" fill="#282E3B"/>
<path transform="translate(671,560)" d="m0 0 1 4-4 19-2 2-2 5-3-1 5-13z" fill="#2859E9"/>
<path transform="translate(1141,657)" d="m0 0 3 1 5 10v9h-3l-4-16z" fill="#1155A9"/>
</svg>
