<?xml version="1.0" encoding="UTF-8"?>
<svg version="1.1" viewBox="0 0 2048 1024" width="200" height="100" xmlns="http://www.w3.org/2000/svg">
<path transform="translate(0)" d="m0 0h2048v1024h-2048z" fill="#FEFDFD"/>
<path transform="translate(850,172)" d="m0 0h256l10 1v15l-2 21-4 12-9 17-13 23-14 24-18 30-15 26-11 19-10 17-13 23-15 27-1 4 9 3 19 8 14 8 19 14 15 14 10 11 14 21 12 24 10 28 6 26 4 21 1 9v40l-4 28-5 27-7 21-7 16-8 17-8 13-12 17-11 12-13 13-13 10-17 10-18 8-15 5-25 5h-30l-24-4-21-7-16-8-12-7-16-12-12-11v-2h-2l-9-11-11-14-11-18-11-21-8-20-1-5 6-4 36-14 24-10 4 1 7 16 10 18 9 12 11 12 14 10 16 8 14 4 6 1h22l14-5 11-6 12-11 9-12 10-18 8-20 5-19 3-18 1-11v-34l-3-25-6-23-8-16-8-13-9-10-11-9-19-10-15-5-19-4-19-2h-20l-13 1-4-4-1-2-1-26 4-14 10-19 8-13 15-26 9-16 10-17 17-29 12-21 15-26 16-27 3-6h-141l-4 4-6 14-11 33-15 52-14 47-12 41-12 40-28 94-14 48-9 29-13 44-13 45-14 47-10 34-9 27-2 3-6-2-3-8-11-35-8-27-15-49-19-64-21-71-21-69-15-49-10-35-6-11-2 3-7 27-27 90-18 59-12 39-18 61-19 65-13 43-9 26-5 8h-2l-4-6-19-63-18-61-14-47-17-58-19-63-48-164-14-47-15-50-15-51-18-60-4-13v-4l14-1h74l3 5 6 23 16 55 12 41 16 53 24 82 15 53 9 29 15 53 6 18 3 3 1-6 12-44 17-59 21-70 14-47 13-43 1-5v-13l-12-39-14-47-13-39v-2l16-1h73l4 9 14 48 17 59 12 39 18 62 16 55 18 62 13 43 7 22 5 16 2-4 4-15 10-37 12-40 14-48 18-60 20-67 18-62 14-47 9-31 1-4z" fill="#055898"/>
<path transform="translate(1673,326)" d="m0 0h100l55 1 11 1-3 35-6 61-5 62-7 74-3 30-2 11-2 3-48 14-57 15-8 1-21-6-24-7-49-13-9-4-5-4-2-31-8-94-8-86-5-57 1-5z" fill="#EB603B"/>
<path transform="translate(1469,171)" d="m0 0h2l5 37 7 43-2 11-12 24-12 22-9 17-6 10-9 16h-4l-11-21-10-13-11-12-9-9-17-12-15-8-13-4-6-1h-23l-16 4-12 5-14 9-13 12-8 8-13 17-8 13-10 19-9 23-8 26-8 36-3 23-2 31v27l4 34 1 8-4-4-11-29-4-12-8-40-3-22v-56l2-26 4-27 6-28 11-33 9-21 12-22 10-15 13-16 8-7 12-10 13-8 13-6 16-4h23l19 5 17 8 15 10 12 11 5 5 10 11 10 14 11 18 4 3 16-34 8-16 14-27 9-15z" fill="#2C2117"/>
<path transform="translate(1138,660)" d="m0 0 5 5 11 21 12 19 14 19 14 15 8 8 11 9 14 10 18 10 19 8 13 4 13 2h32l20-4 18-6 15-7 14-8 13-10 14-12 18-18 9-11 12-16 11-19 7-13 2 1 10 46 2 13v7l-5 13-8 14-13 18-11 14-14 15-13 12-19 14-18 10-20 8-17 4-18 2h-11l-21-3-22-6-18-8-16-10-17-14-17-17-9-11-12-16-12-19-10-18-10-19-12-31-6-21z" fill="#2E2217"/>
<path transform="translate(1619,384)" d="m0 0h164l3 1-2 29-3 2-48 1-75 1-2 1 1 33h116l6 2-1 25-3 40-4 29-3 9-11 4-25 6-17 4h-21l-28-5-21-6-8-4-3-5-3-27-1-21 8-1h21l2 2 1 19 3 2 1 5 29 9h16l18-5 10-3 3-13 1-28-1-3-2-1-30-1h-54l-27 1-2-2-3-26-4-47z" fill="#FFF4EA"/>
<path transform="translate(1702,453)" d="m0 0h76l1 1-1 25-3 40-4 29-3 9-11 4-9 2-16 2-8 3-11 2-2-2 9-3 11-6 9-6-3-2-9-3-12-1-2-4 5-4 19-5 5-5 2-9v-35l-1-2-3-1-20-1-9-3-5-4-5-12-3-3 1-5z" fill="#FEFDFD"/>
<path transform="translate(1744,493)" d="m0 0 2 2v25l-2 9-4 5-13 4-10 3-2 4 1 1 12 1 9 3 4 2-5 5-11 6-5 3-8 2 2 1 16-4 9-2 4 1-22 6-6 1h-21l-28-5-21-6-8-4-3-5-3-27-1-21 8-1h21l2 2 1 19 3 2 1 5 29 9h16l18-5 10-3 3-13 1-24z" fill="#FFF4EA"/>
<path transform="translate(850,172)" d="m0 0h256l9 1v1l-11 2-68 4h-153l-13 1h-52l-16 2-10 3-4 5-4 4-6 13-3 7-5 15-5 14-4 12-2 5-4 13-1 1v8l-10 40-4 14-3 8-4 18h-2l-2 6-5 8h-2l2-10 20-67 13-45 14-47 9-31 1-4z" fill="#064C90"/>
<path transform="translate(1732,385)" d="m0 0h51l1 1v14l-1 13-3 2h-78l-3-2-2-13-2-11 3-3z" fill="#FEFEFE"/>
<path transform="translate(462,173)" d="m0 0h69v2h-2l-1 3-5 1-9-1-36-1-13 2h-9l-5-1v5h2l4 9 3 15 3 8 4 17 5 17 3 9 2 9 4 10 4 13 1 1 3 18-1 15-6 18-2 4-2 10-6 17-2 2-1 7-5 12-2 5-1-3 9-31 12-39 3-12v-13l-12-39-14-47-13-39v-2z" fill="#064C90"/>
<path transform="translate(342,676)" d="m0 0 2 3 3 10 4 10 2 9 7 18 1 7 16 56 3 9 4 13v5h2l2 8 2 1v-4h4l3 7 3 9 10-1-2 9-5 12-3 4h-2l-4-6-19-63-18-61-14-47z" fill="#074B8E"/>
<path transform="translate(961,312)" d="m0 0 3 1-5 12h-2l-1 7-3 6h-2l-1 2-6 9-5 10-5 8-4 10-4 8h-2l-2 6-5 7-6 12h-2l-2 6-8 12h-3l-1 5-5 11-3 8-5 4-4 10-3 12h-1v-11l5-13 10-18 13-22 20-35 16-27 15-26z" fill="#064D90"/>
<path transform="translate(1014,441)" d="m0 0 5 1 14 8 19 14 15 14 10 11 14 21 12 24 10 28 4 17-1 5-2-1-2-10-2-7-6-16-7-19-7-14-5-9-5-7v-2h-2v-2h-2l-4-6-2-1v-2h-2v-2h-3l-3-3v-2h-2l-7-8-7-7-8-7-13-10-7-4z" fill="#064C8F"/>
<path transform="translate(259,395)" d="m0 0h2l3 9v5h2l3 11 2 1 2 7 3 11 3 8 1 7 2 8v3l3 10 3 12 2 6 4 14 3 9 3 11 8 29 6 20 2 7 7 24 4 13 2 7-2 1-8-25-17-57-24-82-19-65z" fill="#064C90"/>
<path transform="translate(202,206)" d="m0 0h2l6 20 2 3 4 15 3 8 5 16 3 4 1 6-2 1 3 3v6l2 4 3 12 7 23 6 21 4 13v5h2l1 6 4 11 2 11h-2l-9-29-19-63-15-51-9-30-4-13z" fill="#064C90"/>
<path transform="translate(207,173)" d="m0 0h64l-1 2-32 4-22 1-12 3-4-4v-2h-2v2h-2v2h-2l-1-7z" fill="#064B8F"/>
<path transform="translate(643,803)" d="m0 0 2 1 8 24 2 2 3-1 5 13 2 4 2 1v2h2l-1 6-3 5-6-2-3-8-11-35-2-7z" fill="#064B8F"/>
<path transform="translate(342,676)" d="m0 0 2 3 3 10 4 10 2 9 7 18 1 7 16 56 3 9 4 13v5h2l1 5-3 1-18-60-19-65-5-16z" fill="#064D90"/>
<path transform="translate(537,181)" d="m0 0 2 1 14 48 13 46v5l-3-3v-4h-2l-2-9-2-11-5-9-4-16v-10h-2l-3-8-3-9-2-7-1-8z" fill="#064C90"/>
<path transform="translate(984,523)" d="m0 0 5 2 10 9 7 7 9 13 2 1v3h2l3 7 3 9 3 10 1 2 1 11 1 2v24l-2-3-3-25-6-23-8-16-8-13-9-10-11-9z" fill="#094D8F"/>
<path transform="translate(787,744)" d="m0 0 3 4 8 14 5 9 3 4 7 11 12 16 19 19 18 13-2 1-13-9-14-12-3-3v-2h-2l-9-11-11-14-11-18-10-19z" fill="#064D90"/>
<path transform="translate(1778,454)" d="m0 0h1l-1 25-3 40-4 29-1 5h-1l1-12 3-33 3-45z" fill="#FFF4EA"/>
<path transform="translate(619,724)" d="m0 0 2 2 8 24 5 17 6 21 3 11h-2l-9-27-13-43z" fill="#064D90"/>
<path transform="translate(1030,668)" d="m0 0h1v22l-5 10-4 1-1 2 1-8 4-17 2-8z" fill="#064C90"/>
<path transform="translate(302,544)" d="m0 0 3 1 4 13 4 16 3 9 7 24 4 13 2 7-2 1-8-25-17-57z" fill="#064E91"/>
<path transform="translate(875,490)" d="m0 0h1l2 9 7-1 12 2-3 2-2 1-13 1-4-4z" fill="#064D90"/>
<path transform="translate(580,327)" d="m0 0 2 1 11 38v2h-2l-5-17-5-14z" fill="#064E91"/>
<path transform="translate(202,206)" d="m0 0h2l6 20 2 3 2 10-2 1-10-32z" fill="#064E91"/>
<path transform="translate(1031,623)" d="m0 0 2 2 1 5v10l-2 10h-1z" fill="#074B8F"/>
<path transform="translate(643,803)" d="m0 0 2 1 5 15v5l-2 1-5-17z" fill="#064D90"/>
<path transform="translate(758,257)" d="m0 0 1 4-4 13h-3l4-16z" fill="#064E91"/>
<path transform="translate(984,523)" d="m0 0 5 2 10 9 7 7v2l-3-1-7-8-8-7z" fill="#064E91"/>
<path transform="translate(1620,385)" d="m0 0h6l1 3-3 4-4-1z" fill="#FEFEFE"/>
<path transform="translate(451,431)" d="m0 0h2l-1 7-4 8-1-4 3-10z" fill="#064E91"/>
<path transform="translate(1015,715)" d="m0 0 3 1v5l-5 5-1-4z" fill="#064E91"/>
<path transform="translate(1190,537)" d="m0 0 2 4 1 12h-2l-2-10z" fill="#0B4780"/>
<path transform="translate(459,404)" d="m0 0 2 3v2h-2l1 3-2 5-2-1 1-7z" fill="#064D90"/>
</svg>
